<svg width="170" height="31" fill="none" xmlns="http://www.w3.org/2000/svg"><path fill-rule="evenodd" clip-rule="evenodd" d="m12.5 2.5 13.7 23.8-3.3 1.9L9.2 4.4l3.3-1.9Z" fill="#F66"/><path fill-rule="evenodd" clip-rule="evenodd" d="M26.2 4.4 12.5 28.2l-3.3-1.9L22.9 2.5l3.3 1.9Z" fill="#F66"/><path d="M31.5 13.4H4v3.8h27.5v-3.8Z" fill="#F66"/><path fill-rule="evenodd" clip-rule="evenodd" d="m5.9 11.9 1 1.7 1 1.7-1 1.7-1 1.8H2L1 17l-1-1.7 1-1.7 1-1.7h3.9ZM19.7 11.9l1 1.7 1 1.7-1 1.7-1 1.8h-4l-1-1.8-1-1.7 1-1.7 1-1.7h4ZM33.4 11.9l1 1.7 1 1.7-1 1.7-1 1.8h-3.9l-1-1.8-1-1.7 1-1.7 1-1.7h3.9ZM12.8 0l1 1.7 1 1.7-1 1.7-1 1.8h-4l-.9-1.8-1-1.7 1-1.7.9-1.7h4ZM26.6 0l.9 1.7 1 1.7-1 1.7-.9 1.8h-4l-1-1.8-1-1.7 1-1.7 1-1.7h4ZM8.8 30.7h4l1-1.8 1-1.7-1-1.7-1-1.7h-4l-.9 1.7-1 1.7 1 1.7.9 1.8ZM22.6 30.7h4l.9-1.8 1-1.7-1-1.7-.9-1.7h-4l-1 1.7-1 1.7 1 1.7 1 1.8ZM49.9 22.3h5.4V11.9h5V8.4H44.9v3.5h5v10.4Zm17.5-7.9v-2.5h3c1.6 0 2.4.2 2.4 1.2s-.8 1.3-2.2 1.3h-3.2Zm5.2-6H62v13.9h5.5v-4.2h3.2c1.3 0 1.8.3 2 1.4.1 1.2-.1 2.2.4 2.9h6v-.2c-.7-.3-.7-1.5-.7-3.5-.1-1.6-.2-2.4-1.7-3 1.4-.6 2.3-1.9 2.3-3.5 0-1.3-.6-2.4-1.6-3-1.1-.7-2.6-.8-4.8-.8ZM79 22.3h5.8l.5-1.4h5.9l.5 1.4h5.8L91.9 8.4h-6.8L79 22.3Zm7.5-4.8 1.8-4.9 1.7 4.9h-3.5Zm11.9 4.8h5.4v-5.2h6.9v-3.4h-6.9v-1.9h8.5V8.4H98.4v13.9Zm15.7 0h5.4v-5.2h6.9v-3.4h-6.9v-1.9h8.5V8.4h-13.9v13.9Zm17.6-13.9h-2v13.9h10.5v-1.8h-8.5V8.4Zm8.8 13.9h2.1l1.8-4h7.1l1.8 4h2.1l-6.2-13.9h-2.1l-6.6 13.9Zm4.8-5.8 2.8-5.9 2.7 5.9h-5.5Zm11.7 5.8h7.6c3.3 0 4.9-1.3 4.9-4.1 0-1.8-.9-2.9-2.7-3.3 1.5-.6 2.2-1.6 2.2-3.1 0-2.2-1.5-3.5-4.2-3.5h-7.7v14h-.1Zm1.9-12.1h5.4c1.8 0 2.7.6 2.7 2 0 1.6-1 2-3.1 2H159v-4h-.1Zm0 5.8h5.4c2.1 0 3 .7 3 2.3 0 1.5-1.1 2.1-3.3 2.1h-5.1V16Z" fill="#fff"/></svg>