<svg width="515" height="114" fill="none" xmlns="http://www.w3.org/2000/svg"><path d="M240.254 93V71.68h2.76v8.88h14.28v-8.88h2.76V93h-2.76v-9.92h-14.28V93h-2.76Zm42.225-11.56c-.933.507-3.387 1.067-7.36 1.68-2.667.4-4.507.853-5.52 1.36-1.013.48-1.52 1.387-1.52 2.72 0 1.12.48 2.027 1.44 2.72.987.693 2.347 1.04 4.08 1.04 2.613 0 4.747-.613 6.4-1.84 1.653-1.227 2.48-2.827 2.48-4.8v-2.88Zm5.16 8.84v2.4c-.853.267-1.64.4-2.36.4-.933 0-1.613-.253-2.04-.76-.4-.507-.653-1.373-.76-2.6-1.2 1.333-2.52 2.293-3.96 2.88-1.44.587-3.16.88-5.16.88-2.613 0-4.613-.547-6-1.64-1.387-1.12-2.08-2.693-2.08-4.72 0-1.92.747-3.44 2.24-4.56 1.067-.8 3.587-1.467 7.56-2a44.46 44.46 0 0 1 1.8-.24 44.97 44.97 0 0 1 1.56-.16c.347-.053.76-.12 1.24-.2.48-.08.827-.16 1.04-.24.24-.107.493-.227.76-.36.267-.16.453-.333.56-.52.133-.187.24-.413.32-.68.08-.267.12-.573.12-.92 0-2.373-1.973-3.56-5.92-3.56-4.88 0-7.413 1.653-7.6 4.96h-2.76c.32-4.987 3.653-7.48 10-7.48 3.867 0 6.48.84 7.84 2.52.533.667.867 1.387 1 2.16.16.773.24 1.8.24 3.08V89.32a2.9 2.9 0 0 0 .16.6c.08.213.2.36.36.44.16.08.373.12.64.12.4 0 .8-.067 1.2-.2Zm4.334 2.72V71.68h2.76v18.04l13.6-18.04h3.44V93h-2.76V74.88L295.373 93h-3.4Zm4.28-29.04h2.24c.186 2.08 1.36 3.12 3.52 3.12s3.333-1.04 3.52-3.12h2.24c0 1.52-.547 2.747-1.64 3.68-1.094.933-2.48 1.4-4.16 1.4-1.627 0-2.987-.467-4.08-1.4-1.094-.933-1.64-2.16-1.64-3.68ZM317.678 93V71.68h2.8v9.88l12.32-9.88h4.16l-9.72 7.8L338.558 93h-3.72l-9.88-11.76-4.48 3.64V93h-2.8Zm23.711 7.64V71.68h2.8v3.76c2.053-2.827 4.866-4.24 8.44-4.24 3.386 0 6.106 1.027 8.16 3.08 2.08 2.053 3.12 4.747 3.12 8.08 0 3.307-1.04 6-3.12 8.08-2.08 2.053-4.8 3.08-8.16 3.08-3.52 0-6.334-1.4-8.44-4.2v11.32h-2.8Zm2.8-18.28c0 2.587.76 4.653 2.28 6.2 1.52 1.547 3.56 2.32 6.12 2.32s4.6-.773 6.12-2.32c1.546-1.573 2.32-3.64 2.32-6.2 0-2.587-.774-4.653-2.32-6.2-1.52-1.573-3.56-2.36-6.12-2.36s-4.6.773-6.12 2.32c-1.52 1.547-2.28 3.627-2.28 6.24Zm40.907-.92c-.933.507-3.387 1.067-7.36 1.68-2.667.4-4.507.853-5.52 1.36-1.013.48-1.52 1.387-1.52 2.72 0 1.12.48 2.027 1.44 2.72.987.693 2.347 1.04 4.08 1.04 2.613 0 4.747-.613 6.4-1.84 1.653-1.227 2.48-2.827 2.48-4.8v-2.88Zm5.16 8.84v2.4c-.853.267-1.64.4-2.36.4-.933 0-1.613-.253-2.04-.76-.4-.507-.653-1.373-.76-2.6-1.2 1.333-2.52 2.293-3.96 2.88-1.44.587-3.16.88-5.16.88-2.613 0-4.613-.547-6-1.64-1.387-1.12-2.08-2.693-2.08-4.72 0-1.92.747-3.44 2.24-4.56 1.067-.8 3.587-1.467 7.56-2a44.46 44.46 0 0 1 1.8-.24 44.97 44.97 0 0 1 1.56-.16c.347-.053.76-.12 1.24-.2.48-.08.827-.16 1.04-.24.24-.107.493-.227.76-.36.267-.16.453-.333.56-.52.133-.187.24-.413.32-.68.08-.267.12-.573.12-.92 0-2.373-1.973-3.56-5.92-3.56-4.88 0-7.413 1.653-7.6 4.96h-2.76c.32-4.987 3.653-7.48 10-7.48 3.867 0 6.48.84 7.84 2.52.533.667.867 1.387 1 2.16.16.773.24 1.8.24 3.08V89.32a2.9 2.9 0 0 0 .16.6c.08.213.2.36.36.44.16.08.373.12.64.12.4 0 .8-.067 1.2-.2Zm4.294-18.6h2.76v18.8h11.32v-18.8h2.76v18.8h11.28v-18.8h2.8v18.8h2.4v8.92h-2.76V93h-30.56V71.68ZM431.191 93V71.68h2.76v18.04l13.6-18.04h3.44V93h-2.76V74.88L434.591 93h-3.4Zm38.265-3.52 8.8-17.8h3.8V93h-2.76V79l.28-4.28-8.68 17.72h-2.92l-8.68-17.72.24 4.28v14h-2.76V71.68h3.84l8.84 17.8Zm18.61 3.52V71.68h2.76v18.04l13.6-18.04h3.44V93h-2.76V74.88L491.466 93h-3.4Z" fill="#fff"/><path d="M207.001 27.707a1 1 0 0 0 0-1.414l-6.364-6.364a1 1 0 1 0-1.414 1.414L204.88 27l-5.657 5.657a1 1 0 1 0 1.414 1.414l6.364-6.364ZM144 28h62.294v-2H144v2Z" fill="#F66"/><path d="m235 103 12.063 5.258a9.998 9.998 0 0 0 7.992 0l8.067-3.516a9.998 9.998 0 0 1 7.992 0l8.067 3.516a9.996 9.996 0 0 0 7.991 0l8.067-3.516a9.998 9.998 0 0 1 7.992 0l8.067 3.516a9.998 9.998 0 0 0 7.992 0l8.067-3.516a9.998 9.998 0 0 1 7.992 0l8.067 3.516a9.998 9.998 0 0 0 7.992 0l8.067-3.516a9.996 9.996 0 0 1 7.991 0l8.068 3.516a9.996 9.996 0 0 0 7.991 0l8.067-3.516a9.998 9.998 0 0 1 7.992 0l8.067 3.516a9.998 9.998 0 0 0 7.992 0l8.067-3.516a9.998 9.998 0 0 1 7.992 0l8.067 3.516a9.998 9.998 0 0 0 7.992 0l8.067-3.516a9.996 9.996 0 0 1 7.991 0l8.067 3.516a9.998 9.998 0 0 0 7.992 0l8.067-3.516a9.998 9.998 0 0 1 7.992 0L508 110" stroke="#699CFC" stroke-width="2"/><path d="M224.96 38V16.68h2.76v8.88H242v-8.88h2.76V38H242v-9.92h-14.28V38h-2.76Zm42.225-11.56c-.933.507-3.387 1.067-7.36 1.68-2.667.4-4.507.853-5.52 1.36-1.013.48-1.52 1.387-1.52 2.72 0 1.12.48 2.027 1.44 2.72.987.693 2.347 1.04 4.08 1.04 2.613 0 4.747-.613 6.4-1.84 1.653-1.227 2.48-2.827 2.48-4.8v-2.88Zm5.16 8.84v2.4c-.853.267-1.64.4-2.36.4-.933 0-1.613-.253-2.04-.76-.4-.507-.653-1.373-.76-2.6-1.2 1.333-2.52 2.293-3.96 2.88-1.44.587-3.16.88-5.16.88-2.613 0-4.613-.547-6-1.64-1.387-1.12-2.08-2.693-2.08-4.72 0-1.92.747-3.44 2.24-4.56 1.067-.8 3.587-1.467 7.56-2a44.46 44.46 0 0 1 1.8-.24 44.97 44.97 0 0 1 1.56-.16c.347-.053.76-.12 1.24-.2.48-.08.827-.16 1.04-.24.24-.107.493-.227.76-.36.267-.16.453-.333.56-.52.133-.187.24-.413.32-.68.08-.267.12-.573.12-.92 0-2.373-1.973-3.56-5.92-3.56-4.88 0-7.413 1.653-7.6 4.96h-2.76c.32-4.987 3.653-7.48 10-7.48 3.867 0 6.48.84 7.84 2.52.533.667.867 1.387 1 2.16.16.773.24 1.8.24 3.08V34.32a2.9 2.9 0 0 0 .16.6c.08.213.2.36.36.44.16.08.373.12.64.12.4 0 .8-.067 1.2-.2Zm4.334 2.72V16.68h2.76v18.04l13.6-18.04h3.44V38h-2.76V19.88L280.079 38h-3.4Zm4.28-29.04h2.24c.186 2.08 1.36 3.12 3.52 3.12s3.333-1.04 3.52-3.12h2.24c0 1.52-.547 2.747-1.64 3.68-1.094.933-2.48 1.4-4.16 1.4-1.627 0-2.987-.467-4.08-1.4-1.094-.933-1.64-2.16-1.64-3.68ZM302.384 38V16.68h2.8v9.88l12.32-9.88h4.16l-9.72 7.8L323.264 38h-3.72l-9.88-11.76-4.48 3.64V38h-2.8Zm23.711 7.64V16.68h2.8v3.76c2.053-2.827 4.866-4.24 8.44-4.24 3.386 0 6.106 1.027 8.16 3.08 2.08 2.053 3.12 4.747 3.12 8.08 0 3.307-1.04 6-3.12 8.08-2.08 2.053-4.8 3.08-8.16 3.08-3.52 0-6.334-1.4-8.44-4.2v11.32h-2.8Zm2.8-18.28c0 2.587.76 4.653 2.28 6.2 1.52 1.547 3.56 2.32 6.12 2.32s4.6-.773 6.12-2.32c1.546-1.573 2.32-3.64 2.32-6.2 0-2.587-.774-4.653-2.32-6.2-1.52-1.573-3.56-2.36-6.12-2.36s-4.6.773-6.12 2.32c-1.52 1.547-2.28 3.627-2.28 6.24Zm40.907-.92c-.933.507-3.386 1.067-7.36 1.68-2.666.4-4.506.853-5.52 1.36-1.013.48-1.52 1.387-1.52 2.72 0 1.12.48 2.027 1.44 2.72.987.693 2.347 1.04 4.08 1.04 2.614 0 4.747-.613 6.4-1.84 1.654-1.227 2.48-2.827 2.48-4.8v-2.88Zm5.16 8.84v2.4c-.853.267-1.64.4-2.36.4-.933 0-1.613-.253-2.04-.76-.4-.507-.653-1.373-.76-2.6-1.2 1.333-2.52 2.293-3.96 2.88-1.44.587-3.16.88-5.16.88-2.613 0-4.613-.547-6-1.64-1.386-1.12-2.08-2.693-2.08-4.72 0-1.92.747-3.44 2.24-4.56 1.067-.8 3.587-1.467 7.56-2a44.46 44.46 0 0 1 1.8-.24 45.48 45.48 0 0 1 1.56-.16c.347-.053.76-.12 1.24-.2.48-.08.827-.16 1.04-.24.24-.107.494-.227.76-.36.267-.16.454-.333.56-.52a2.28 2.28 0 0 0 .32-.68c.08-.267.12-.573.12-.92 0-2.373-1.973-3.56-5.92-3.56-4.88 0-7.413 1.653-7.6 4.96h-2.76c.32-4.987 3.654-7.48 10-7.48 3.867 0 6.48.84 7.84 2.52.534.667.867 1.387 1 2.16.16.773.24 1.8.24 3.08V34.32a2.9 2.9 0 0 0 .16.6c.08.213.2.36.36.44.16.08.374.12.64.12.4 0 .8-.067 1.2-.2Zm4.294-18.6h2.76v18.8h11.32v-18.8h2.76v18.8h11.28v-18.8h2.8v18.8h2.4v8.92h-2.76V38h-30.56V16.68ZM415.898 38V16.68h2.76v18.04l13.6-18.04h3.44V38h-2.76V19.88L419.298 38h-3.4Zm38.265-3.52 8.8-17.8h3.8V38h-2.76V24l.28-4.28-8.68 17.72h-2.92l-8.68-17.72.24 4.28v14h-2.76V16.68h3.84l8.84 17.8ZM29.76 18.44c-.56-2.373-1.76-4.2-3.6-5.48C24.347 11.653 22.027 11 19.2 11c-3.813 0-6.813 1.12-9 3.36-2.16 2.213-3.24 5.253-3.24 9.12 0 3.813 1.053 6.84 3.16 9.08 2.133 2.24 4.973 3.36 8.52 3.36 2.933 0 5.427-.787 7.48-2.36 2.053-1.6 3.373-3.76 3.96-6.48h3.12c-.667 3.573-2.307 6.413-4.92 8.52-2.587 2.107-5.773 3.16-9.56 3.16-4.453 0-8.027-1.387-10.72-4.16-2.667-2.773-4-6.48-4-11.12 0-4.72 1.347-8.44 4.04-11.16 2.72-2.747 6.453-4.12 11.2-4.12 3.76 0 6.827.92 9.2 2.76 2.4 1.813 3.827 4.307 4.28 7.48h-2.96ZM46.418 38h-2.76V19.2h-8.64v-2.52h20.04v2.52h-8.64V38Zm28.619-11.56c-.934.507-3.387 1.067-7.36 1.68-2.667.4-4.507.853-5.52 1.36-1.014.48-1.52 1.387-1.52 2.72 0 1.12.48 2.027 1.44 2.72.986.693 2.346 1.04 4.08 1.04 2.613 0 4.746-.613 6.4-1.84 1.653-1.227 2.48-2.827 2.48-4.8v-2.88Zm5.16 8.84v2.4c-.854.267-1.64.4-2.36.4-.934 0-1.614-.253-2.04-.76-.4-.507-.654-1.373-.76-2.6-1.2 1.333-2.52 2.293-3.96 2.88-1.44.587-3.16.88-5.16.88-2.614 0-4.614-.547-6-1.64-1.387-1.12-2.08-2.693-2.08-4.72 0-1.92.746-3.44 2.24-4.56 1.066-.8 3.586-1.467 7.56-2 .506-.08 1.106-.16 1.8-.24.693-.08 1.213-.133 1.56-.16.346-.053.76-.12 1.24-.2.48-.08.826-.16 1.04-.24.24-.107.493-.227.76-.36.266-.16.453-.333.56-.52.133-.187.24-.413.32-.68.08-.267.12-.573.12-.92 0-2.373-1.974-3.56-5.92-3.56-4.88 0-7.414 1.653-7.6 4.96h-2.76c.32-4.987 3.653-7.48 10-7.48 3.866 0 6.48.84 7.84 2.52.533.667.866 1.387 1 2.16.16.773.24 1.8.24 3.08V34.32c.026.187.08.387.16.6.08.213.2.36.36.44.16.08.373.12.64.12.4 0 .8-.067 1.2-.2ZM93.41 38h-2.76V19.2h-8.64v-2.52h20.04v2.52h-8.64V38Zm12.019 0V16.68h2.76v18.04l13.6-18.04h3.44V38h-2.76V19.88L108.829 38h-3.4ZM5.04 100.646v-28.96h2.8v3.76c2.053-2.827 4.867-4.24 8.44-4.24 3.387 0 6.107 1.026 8.16 3.08 2.08 2.053 3.12 4.746 3.12 8.08 0 3.306-1.04 6-3.12 8.08-2.08 2.053-4.8 3.08-8.16 3.08-3.52 0-6.333-1.4-8.44-4.2v11.32h-2.8Zm2.8-18.28c0 2.587.76 4.653 2.28 6.2 1.52 1.546 3.56 2.32 6.12 2.32s4.6-.773 6.12-2.32c1.547-1.573 2.32-3.64 2.32-6.2 0-2.587-.773-4.653-2.32-6.2-1.52-1.573-3.56-2.36-6.12-2.36s-4.6.773-6.12 2.32c-1.52 1.546-2.28 3.626-2.28 6.24Zm40.907-.92c-.933.507-3.386 1.067-7.36 1.68-2.666.4-4.506.853-5.52 1.36-1.013.48-1.52 1.386-1.52 2.72 0 1.12.48 2.026 1.44 2.72.987.693 2.347 1.04 4.08 1.04 2.614 0 4.747-.613 6.4-1.84 1.654-1.227 2.48-2.827 2.48-4.8v-2.88Zm5.16 8.84v2.4c-.853.266-1.64.4-2.36.4-.933 0-1.613-.254-2.04-.76-.4-.507-.653-1.373-.76-2.6-1.2 1.333-2.52 2.293-3.96 2.88-1.44.587-3.16.88-5.16.88-2.613 0-4.613-.547-6-1.64-1.386-1.12-2.08-2.694-2.08-4.72 0-1.92.747-3.44 2.24-4.56 1.067-.8 3.587-1.467 7.56-2 .507-.08 1.107-.16 1.8-.24a44.87 44.87 0 0 1 1.56-.16c.347-.053.76-.12 1.24-.2.48-.08.827-.16 1.04-.24.24-.107.494-.227.76-.36.267-.16.454-.334.56-.52.134-.187.24-.413.32-.68.08-.267.12-.573.12-.92 0-2.373-1.973-3.56-5.92-3.56-4.88 0-7.413 1.653-7.6 4.96h-2.76c.32-4.987 3.654-7.48 10-7.48 3.867 0 6.48.84 7.84 2.52.534.666.867 1.386 1 2.16.16.773.24 1.8.24 3.08V89.326c.027.187.08.387.16.6.08.213.2.36.36.44.16.08.374.12.64.12.4 0 .8-.067 1.2-.2Zm12.214-7.68v-2.04h3.08c1.174 0 2.254-.374 3.24-1.12.987-.747 1.48-1.64 1.48-2.68 0-2.427-2.08-3.64-6.24-3.64-1.84 0-3.253.36-4.24 1.08-.986.72-1.706 1.867-2.16 3.44h-2.76c.187-2 1.134-3.627 2.84-4.88 1.734-1.254 3.8-1.88 6.2-1.88 2.987 0 5.267.547 6.84 1.64 1.6 1.093 2.4 2.427 2.4 4 0 1.306-.453 2.413-1.36 3.32-.906.906-2.013 1.466-3.32 1.68 1.6.32 2.92 1 3.96 2.04 1.067 1.04 1.6 2.306 1.6 3.8 0 2.053-.866 3.627-2.6 4.72-1.733 1.067-4.146 1.6-7.24 1.6-3.013 0-5.4-.64-7.16-1.92-1.76-1.307-2.746-3.12-2.96-5.44h2.84c.187 1.6.92 2.853 2.2 3.76 1.28.88 3.027 1.32 5.24 1.32 2.054 0 3.667-.36 4.84-1.08 1.2-.747 1.8-1.72 1.8-2.92 0-1.574-.56-2.76-1.68-3.56-1.12-.827-2.546-1.24-4.28-1.24h-2.56Zm17.437 8.04c-2.08-2.107-3.12-4.867-3.12-8.28 0-3.413 1.04-6.16 3.12-8.24 2.106-2.107 4.853-3.16 8.24-3.16 3.413 0 6.16 1.053 8.24 3.16 2.106 2.08 3.16 4.826 3.16 8.24 0 3.413-1.054 6.173-3.16 8.28-2.08 2.08-4.827 3.12-8.24 3.12-3.387 0-6.133-1.04-8.24-3.12Zm2-14.6c-1.52 1.546-2.28 3.653-2.28 6.32 0 2.666.76 4.787 2.28 6.36 1.546 1.546 3.626 2.32 6.24 2.32 2.613 0 4.68-.787 6.2-2.36 1.546-1.574 2.32-3.68 2.32-6.32s-.773-4.747-2.32-6.32c-1.52-1.574-3.587-2.36-6.2-2.36-2.614 0-4.694.786-6.24 2.36Zm34.894 13.44 8.8-17.8h3.8v21.32h-2.76v-14l.28-4.28-8.68 17.72h-2.92l-8.68-17.72.24 4.28v14h-2.76v-21.32h3.84l8.84 17.8Zm39.497-6.88v-2.04h3.08c1.174 0 2.254-.374 3.24-1.12.987-.747 1.48-1.64 1.48-2.68 0-2.427-2.08-3.64-6.24-3.64-1.84 0-3.253.36-4.24 1.08-.986.72-1.706 1.867-2.16 3.44h-2.76c.187-2 1.134-3.627 2.84-4.88 1.734-1.254 3.8-1.88 6.2-1.88 2.987 0 5.267.547 6.84 1.64 1.6 1.093 2.4 2.427 2.4 4 0 1.306-.453 2.413-1.36 3.32-.906.906-2.013 1.466-3.32 1.68 1.6.32 2.92 1 3.96 2.04 1.067 1.04 1.6 2.306 1.6 3.8 0 2.053-.866 3.627-2.6 4.72-1.733 1.067-4.146 1.6-7.24 1.6-3.013 0-5.4-.64-7.16-1.92-1.76-1.307-2.746-3.12-2.96-5.44h2.84c.187 1.6.92 2.853 2.2 3.76 1.28.88 3.027 1.32 5.24 1.32 2.054 0 3.667-.36 4.84-1.08 1.2-.747 1.8-1.72 1.8-2.92 0-1.574-.56-2.76-1.68-3.56-1.12-.827-2.546-1.24-4.28-1.24h-2.56Z" fill="#fff"/><path d="m204.209 66 2.369 10.489 9.092-5.742-5.741 9.093 10.489 2.369-10.489 2.37 5.741 9.092-9.092-5.742-2.369 10.489-2.369-10.489-9.092 5.742 5.741-9.093L188 82.21l10.489-2.37-5.741-9.091 9.092 5.741L204.209 66Z" fill="#CB9CFD"/></svg>