<svg width="516" height="114" viewBox="0 0 516 114" fill="none" xmlns="http://www.w3.org/2000/svg">
<path d="M312.83 71.9919V77.5359C312.83 78.9145 312.801 80.1025 312.742 81.0999C312.713 82.0972 312.639 83.2852 312.522 84.6639C312.405 86.0132 312.199 87.1572 311.906 88.0959C311.642 89.0345 311.29 89.9439 310.85 90.8239C310.439 91.7039 309.867 92.3639 309.134 92.8039C308.43 93.2732 307.609 93.5079 306.67 93.5079C305.79 93.5079 305.042 93.4052 304.426 93.1999V91.0439C304.983 91.1612 305.599 91.2199 306.274 91.2199C307.535 91.2199 308.43 90.1492 308.958 88.0079C309.515 85.8665 309.794 82.6545 309.794 78.3719V69.2199H330.034V92.6719H326.998V71.9919H312.83ZM345.093 95.4879C344.154 97.5705 343.186 99.0225 342.189 99.8439C341.221 100.695 339.637 101.12 337.437 101.12C336.762 101.12 335.882 100.973 334.797 100.68V97.7319C336.088 97.9959 337.085 98.1279 337.789 98.1279C339.08 98.1279 340.092 97.7172 340.825 96.8959C341.588 96.1039 342.424 94.6665 343.333 92.5839L332.641 69.2199H336.161L344.917 89.5039L353.761 69.2199H357.149L345.093 95.4879ZM359.922 69.2199H362.958V74.7199C362.958 76.7439 363.706 78.3132 365.202 79.4279C366.727 80.5132 368.692 81.0559 371.098 81.0559C373.18 81.0559 375.498 80.6892 378.05 79.9559V69.2199H381.086V92.6719H378.05V82.7279C375.703 83.4612 373.268 83.8279 370.746 83.8279C367.548 83.8279 364.938 83.0505 362.914 81.4959C360.919 79.9412 359.922 77.8145 359.922 75.1159V69.2199ZM387.428 69.2639H390.464V89.8999H402.916V69.2639H405.952V89.8999H418.404V69.2639H421.44V92.6719H387.428V69.2639ZM427.734 92.6719V69.2199H430.77V89.0639L445.73 69.2199H449.514V92.6719H446.478V72.7399L431.474 92.6719H427.734ZM469.825 88.7999L479.505 69.2199H483.685V92.6719H480.649V77.2719L480.957 72.5639L471.409 92.0559H468.197L458.649 72.5639L458.913 77.2719V92.6719H455.877V69.2199H460.101L469.825 88.7999ZM490.296 92.6719V69.2199H493.332V89.0639L508.292 69.2199H512.076V92.6719H509.04V72.7399L494.036 92.6719H490.296Z" fill="white"/>
<path d="M289.001 81.379C289.392 80.9885 289.392 80.3553 289.001 79.9648L282.637 73.6008C282.247 73.2103 281.613 73.2103 281.223 73.6008C280.832 73.9913 280.832 74.6245 281.223 75.015L286.88 80.6719L281.223 86.3287C280.832 86.7193 280.832 87.3524 281.223 87.7429C281.613 88.1335 282.247 88.1335 282.637 87.7429L289.001 81.379ZM226 81.6719H288.294V79.6719H226V81.6719Z" fill="#FF6666"/>
<path d="M1 105.344L8.14679 109.609C11.3035 111.493 15.2393 111.493 18.3959 109.609L20.4182 108.402C23.5749 106.519 27.5106 106.519 30.6673 108.402L32.6895 109.609C35.8462 111.493 39.782 111.493 42.9387 109.609L44.9609 108.402C48.1176 106.519 52.0534 106.519 55.2101 108.402L57.2323 109.609C60.389 111.493 64.3247 111.493 67.4814 109.609L69.5036 108.402C72.6603 106.519 76.5961 106.519 79.7528 108.402L81.775 109.609C84.9317 111.493 88.8675 111.493 92.0242 109.609L94.0464 108.402C97.2031 106.519 101.139 106.519 104.296 108.402L106.318 109.609C109.474 111.493 113.41 111.493 116.567 109.609L118.589 108.402C121.746 106.519 125.682 106.519 128.838 108.402L130.86 109.609C134.017 111.493 137.953 111.493 141.11 109.609L143.132 108.402C146.289 106.519 150.224 106.519 153.381 108.402L155.403 109.609C158.56 111.493 162.496 111.493 165.652 109.609L167.675 108.402C170.831 106.519 174.767 106.519 177.924 108.402L179.946 109.609C183.103 111.493 187.038 111.493 190.195 109.609L192.217 108.402C195.374 106.519 199.31 106.519 202.466 108.402L209.613 112.667" stroke="#699CFC" stroke-width="2"/>
<path d="M210.54 18.32V23.864C210.54 25.2427 210.511 26.4307 210.452 27.428C210.423 28.4253 210.349 29.6133 210.232 30.992C210.115 32.3413 209.909 33.4853 209.616 34.424C209.352 35.3627 209 36.272 208.56 37.152C208.149 38.032 207.577 38.692 206.844 39.132C206.14 39.6013 205.319 39.836 204.38 39.836C203.5 39.836 202.752 39.7333 202.136 39.528V37.372C202.693 37.4893 203.309 37.548 203.984 37.548C205.245 37.548 206.14 36.4773 206.668 34.336C207.225 32.1947 207.504 28.9827 207.504 24.7V15.548H227.744V39H224.708V18.32H210.54ZM242.803 41.816C241.864 43.8987 240.896 45.3507 239.899 46.172C238.931 47.0227 237.347 47.448 235.147 47.448C234.472 47.448 233.592 47.3013 232.507 47.008V44.06C233.798 44.324 234.795 44.456 235.499 44.456C236.79 44.456 237.802 44.0453 238.535 43.224C239.298 42.432 240.134 40.9947 241.043 38.912L230.351 15.548H233.871L242.627 35.832L251.471 15.548H254.859L242.803 41.816ZM257.632 15.548H260.668V21.048C260.668 23.072 261.416 24.6413 262.912 25.756C264.437 26.8413 266.402 27.384 268.808 27.384C270.89 27.384 273.208 27.0173 275.76 26.284V15.548H278.796V39H275.76V29.056C273.413 29.7893 270.978 30.156 268.456 30.156C265.258 30.156 262.648 29.3787 260.624 27.824C258.629 26.2693 257.632 24.1427 257.632 21.444V15.548ZM285.138 15.592H288.174V36.228H300.626V15.592H303.662V36.228H316.114V15.592H319.15V39H285.138V15.592ZM325.444 39V15.548H328.48V35.392L343.44 15.548H347.224V39H344.188V19.068L329.184 39H325.444ZM367.535 35.128L377.215 15.548H381.395V39H378.359V23.6L378.667 18.892L369.119 38.384H365.907L356.359 18.892L356.623 23.6V39H353.587V15.548H357.811L367.535 35.128Z" fill="white"/>
<path d="M170.002 10.791L172.371 21.28L181.463 15.5385L175.722 24.6307L186.211 27L175.722 29.3693L181.463 38.4615L172.371 32.72L170.002 43.209L167.633 32.72L158.54 38.4615L164.282 29.3693L153.793 27L164.282 24.6307L158.54 15.5385L167.633 21.28L170.002 10.791Z" fill="#CB9CFD"/>
<path d="M31.536 17.484C30.92 14.8733 29.6 12.864 27.576 11.456C25.5813 10.0187 23.0293 9.3 19.92 9.3C15.7253 9.3 12.4253 10.532 10.02 12.996C7.644 15.4307 6.456 18.7747 6.456 23.028C6.456 27.2227 7.61467 30.552 9.932 33.016C12.2787 35.48 15.4027 36.712 19.304 36.712C22.5307 36.712 25.2733 35.8467 27.532 34.116C29.7907 32.356 31.2427 29.98 31.888 26.988H35.32C34.5867 30.9187 32.7827 34.0427 29.908 36.36C27.0627 38.6773 23.5573 39.836 19.392 39.836C14.4933 39.836 10.5627 38.3107 7.6 35.26C4.66667 32.2093 3.2 28.132 3.2 23.028C3.2 17.836 4.68133 13.744 7.644 10.752C10.636 7.73066 14.7427 6.22 19.964 6.22C24.1 6.22 27.4733 7.232 30.084 9.256C32.724 11.2507 34.2933 13.9933 34.792 17.484H31.536ZM49.8599 39H46.8239V18.32H37.3199V15.548H59.3639V18.32H49.8599V39ZM81.3402 26.284C80.3136 26.8413 77.6149 27.4573 73.2442 28.132C70.3109 28.572 68.2869 29.0707 67.1722 29.628C66.0576 30.156 65.5002 31.1533 65.5002 32.62C65.5002 33.852 66.0282 34.8493 67.0842 35.612C68.1696 36.3747 69.6656 36.756 71.5722 36.756C74.4469 36.756 76.7936 36.0813 78.6122 34.732C80.4309 33.3827 81.3402 31.6227 81.3402 29.452V26.284ZM87.0162 36.008V38.648C86.0776 38.9413 85.2122 39.088 84.4202 39.088C83.3936 39.088 82.6456 38.8093 82.1762 38.252C81.7362 37.6947 81.4576 36.7413 81.3402 35.392C80.0202 36.8587 78.5682 37.9147 76.9842 38.56C75.4002 39.2053 73.5082 39.528 71.3082 39.528C68.4336 39.528 66.2336 38.9267 64.7082 37.724C63.1829 36.492 62.4202 34.7613 62.4202 32.532C62.4202 30.42 63.2416 28.748 64.8842 27.516C66.0576 26.636 68.8296 25.9027 73.2002 25.316C73.7576 25.228 74.4176 25.14 75.1802 25.052C75.9429 24.964 76.5149 24.9053 76.8962 24.876C77.2776 24.8173 77.7322 24.744 78.2602 24.656C78.7882 24.568 79.1696 24.48 79.4042 24.392C79.6682 24.2747 79.9469 24.1427 80.2402 23.996C80.5336 23.82 80.7389 23.6293 80.8562 23.424C81.0029 23.2187 81.1202 22.9693 81.2082 22.676C81.2962 22.3827 81.3402 22.0453 81.3402 21.664C81.3402 19.0533 79.1696 17.748 74.8282 17.748C69.4602 17.748 66.6736 19.5667 66.4682 23.204H63.4322C63.7842 17.7187 67.4509 14.976 74.4322 14.976C78.6856 14.976 81.5602 15.9 83.0562 17.748C83.6429 18.4813 84.0096 19.2733 84.1562 20.124C84.3322 20.9747 84.4202 22.104 84.4202 23.512V33.896C84.4202 34.3653 84.4202 34.7173 84.4202 34.952C84.4496 35.1573 84.5082 35.3773 84.5962 35.612C84.6842 35.8467 84.8162 36.008 84.9922 36.096C85.1682 36.184 85.4029 36.228 85.6962 36.228C86.1362 36.228 86.5762 36.1547 87.0162 36.008ZM101.551 39H98.5153V18.32H89.0113V15.548H111.055V18.32H101.551V39ZM117.808 25.404H127.268C132.782 25.404 135.54 27.6627 135.54 32.18C135.54 36.7267 132.68 39 126.96 39H114.772V15.592H117.808V25.404ZM117.808 28.176V36.228H126.872C128.984 36.228 130.436 35.9347 131.228 35.348C132.02 34.732 132.416 33.6907 132.416 32.224C132.416 30.816 132.005 29.7893 131.184 29.144C130.392 28.4987 128.969 28.176 126.916 28.176H117.808Z" fill="white"/>
<path d="M7.292 80.7619H16.62C17.852 80.7619 18.908 80.4539 19.788 79.8379C20.6973 79.2219 21.152 78.3712 21.152 77.2859C21.152 75.7899 20.756 74.7632 19.964 74.2059C19.172 73.6192 17.764 73.3259 15.74 73.3259H7.292V80.7619ZM4.256 70.5539H16.752C19.2453 70.5539 21.1227 71.1112 22.384 72.2259C23.6453 73.3112 24.276 74.8805 24.276 76.9339C24.276 79.1632 23.2347 80.7472 21.152 81.6859C23.7333 82.3019 25.024 84.1352 25.024 87.1859C25.024 91.7325 22.164 94.0059 16.444 94.0059H4.256V70.5539ZM7.292 83.1379V91.2339H16.356C18.468 91.2339 19.92 90.9405 20.712 90.3539C21.504 89.7379 21.9 88.6965 21.9 87.2299C21.9 85.8219 21.504 84.7952 20.712 84.1499C19.9493 83.4752 18.5707 83.1379 16.576 83.1379H7.292ZM43.9842 90.1339L53.6642 70.5539H57.8442V94.0059H54.8082V78.6059L55.1162 73.8979L45.5682 93.3899H42.3562L32.8082 73.8979L33.0722 78.6059V94.0059H30.0362V70.5539H34.2602L43.9842 90.1339ZM87.1152 86.5259C86.4992 89.0779 85.1499 91.1019 83.0672 92.5979C81.0139 94.0939 78.5059 94.8419 75.5432 94.8419C71.7592 94.8419 68.7232 93.6979 66.4352 91.4099C64.1766 89.0925 63.0472 86.0565 63.0472 82.3019C63.0472 78.5472 64.1912 75.5259 66.4792 73.2379C68.7966 70.9205 71.8179 69.7619 75.5432 69.7619C79.2979 69.7619 82.3046 70.9059 84.5632 73.1939C86.8512 75.4525 87.9952 78.4739 87.9952 82.2579V82.9619H66.4352C66.4352 85.7192 67.2566 87.8899 68.8992 89.4739C70.5712 91.0579 72.7859 91.8499 75.5432 91.8499C77.5379 91.8499 79.2539 91.3952 80.6912 90.4859C82.1286 89.5472 83.1259 88.2272 83.6832 86.5259H87.1152ZM66.4352 80.4099H84.5192C84.5192 78.1219 83.6686 76.2592 81.9672 74.8219C80.2659 73.3845 78.1246 72.6659 75.5432 72.6659C72.9326 72.6659 70.7619 73.3845 69.0312 74.8219C67.3006 76.2592 66.4352 78.1219 66.4352 80.4099ZM112.434 85.4699H115.558C115.236 88.2272 114.004 90.4859 111.862 92.2459C109.721 93.9765 107.125 94.8419 104.074 94.8419C100.349 94.8419 97.3278 93.6979 95.0105 91.4099C92.7225 89.0925 91.5785 86.0565 91.5785 82.3019C91.5785 78.5472 92.7225 75.5259 95.0105 73.2379C97.3278 70.9205 100.349 69.7619 104.074 69.7619C107.037 69.7619 109.545 70.5539 111.598 72.1379C113.681 73.7219 114.928 75.7899 115.338 78.3419H112.17C110.997 74.5579 108.269 72.6659 103.986 72.6659C101.229 72.6659 98.9851 73.5459 97.2545 75.3059C95.5531 77.0659 94.7025 79.3979 94.7025 82.3019C94.7025 85.2352 95.5385 87.5672 97.2105 89.2979C98.9118 90.9992 101.2 91.8499 104.074 91.8499C106.216 91.8499 108.034 91.2779 109.53 90.1339C111.056 88.9605 112.024 87.4059 112.434 85.4699ZM129.782 94.0059H126.746V73.3259H117.242V70.5539H139.286V73.3259H129.782V94.0059ZM165.662 86.5259C165.046 89.0779 163.697 91.1019 161.614 92.5979C159.561 94.0939 157.053 94.8419 154.09 94.8419C150.306 94.8419 147.27 93.6979 144.982 91.4099C142.723 89.0925 141.594 86.0565 141.594 82.3019C141.594 78.5472 142.738 75.5259 145.026 73.2379C147.343 70.9205 150.365 69.7619 154.09 69.7619C157.845 69.7619 160.851 70.9059 163.11 73.1939C165.398 75.4525 166.542 78.4739 166.542 82.2579V82.9619H144.982C144.982 85.7192 145.803 87.8899 147.446 89.4739C149.118 91.0579 151.333 91.8499 154.09 91.8499C156.085 91.8499 157.801 91.3952 159.238 90.4859C160.675 89.5472 161.673 88.2272 162.23 86.5259H165.662ZM144.982 80.4099H163.066C163.066 78.1219 162.215 76.2592 160.514 74.8219C158.813 73.3845 156.671 72.6659 154.09 72.6659C151.479 72.6659 149.309 73.3845 147.578 74.8219C145.847 76.2592 144.982 78.1219 144.982 80.4099ZM205.29 85.4699H208.414C208.091 88.2272 206.859 90.4859 204.718 92.2459C202.577 93.9765 199.981 94.8419 196.93 94.8419C193.205 94.8419 190.183 93.6979 187.866 91.4099C185.578 89.0925 184.434 86.0565 184.434 82.3019C184.434 78.5472 185.578 75.5259 187.866 73.2379C190.183 70.9205 193.205 69.7619 196.93 69.7619C199.893 69.7619 202.401 70.5539 204.454 72.1379C206.537 73.7219 207.783 75.7899 208.194 78.3419H205.026C203.853 74.5579 201.125 72.6659 196.842 72.6659C194.085 72.6659 191.841 73.5459 190.11 75.3059C188.409 77.0659 187.558 79.3979 187.558 82.3019C187.558 85.2352 188.394 87.5672 190.066 89.2979C191.767 90.9992 194.055 91.8499 196.93 91.8499C199.071 91.8499 200.89 91.2779 202.386 90.1339C203.911 88.9605 204.879 87.4059 205.29 85.4699Z" fill="white"/>
</svg>
