<svg xmlns="http://www.w3.org/2000/svg" width="515" height="114" fill="none"><path fill="#fff" d="M204.256 90V66.548h3.036v9.768H223v-9.768h3.036V90H223V79.088h-15.708V90h-3.036Zm46.448-12.716c-1.027.557-3.726 1.173-8.096 1.848-2.934.44-4.958.939-6.072 1.496-1.115.528-1.672 1.525-1.672 2.992 0 1.232.528 2.23 1.584 2.992 1.085.763 2.581 1.144 4.488 1.144 2.874 0 5.221-.675 7.04-2.024 1.818-1.35 2.728-3.11 2.728-5.28v-3.168Zm5.676 9.724v2.64c-.939.293-1.804.44-2.596.44-1.027 0-1.775-.279-2.244-.836-.44-.557-.719-1.51-.836-2.86-1.32 1.467-2.772 2.523-4.356 3.168s-3.476.968-5.676.968c-2.875 0-5.075-.601-6.6-1.804-1.526-1.232-2.288-2.963-2.288-5.192 0-2.112.821-3.784 2.464-5.016 1.173-.88 3.945-1.613 8.316-2.2a48.57 48.57 0 0 1 1.98-.264 49.142 49.142 0 0 1 1.716-.176c.381-.059.836-.132 1.364-.22.528-.088.909-.176 1.144-.264.264-.117.542-.25.836-.396.293-.176.498-.367.616-.572.146-.205.264-.455.352-.748.088-.293.132-.63.132-1.012 0-2.61-2.171-3.916-6.512-3.916-5.368 0-8.155 1.819-8.36 5.456h-3.036c.352-5.485 4.018-8.228 11-8.228 4.253 0 7.128.924 8.623 2.772.587.733.954 1.525 1.101 2.376.176.85.264 1.98.264 3.388V85.952c.029.205.088.425.176.66.088.235.22.396.396.484.176.088.41.132.703.132.441 0 .881-.073 1.321-.22Zm18.671-.88 9.68-19.58h4.18V90h-3.036V74.6l.308-4.708-9.548 19.492h-3.212l-9.548-19.492.264 4.708V90h-3.036V66.548h4.224l9.724 19.58ZM295.522 90V66.548h3.036v19.844l14.96-19.844h3.784V90h-3.036V70.068L299.262 90h-3.74Zm30.079 0v-3.916h3.564V90h-3.564Zm.792-7.48-.616-12.76V58.056h3.212V69.76l-.616 12.76h-1.98Z"/><path fill="#F66" d="M169.001 81.707a1 1 0 0 0 0-1.414l-6.364-6.364a1 1 0 1 0-1.414 1.414L166.88 81l-5.657 5.657a1 1 0 1 0 1.414 1.414l6.364-6.364ZM45 82h123.294v-2H45v2Z"/><path stroke="#699CFC" stroke-width="2" d="m201 105 3.882 4a5.41 5.41 0 0 0 7.765 0 5.41 5.41 0 0 1 7.765 0 5.409 5.409 0 0 0 7.764 0 5.41 5.41 0 0 1 7.765 0 5.41 5.41 0 0 0 7.765 0 5.41 5.41 0 0 1 7.765 0 5.409 5.409 0 0 0 7.764 0 5.41 5.41 0 0 1 7.765 0 5.41 5.41 0 0 0 7.765 0 5.409 5.409 0 0 1 7.764 0 5.41 5.41 0 0 0 7.765 0 5.41 5.41 0 0 1 7.765 0 5.41 5.41 0 0 0 7.765 0 5.409 5.409 0 0 1 7.764 0 5.41 5.41 0 0 0 7.765 0 5.41 5.41 0 0 1 7.765 0l3.882 4"/><path fill="#fff" d="M207.296 25.756h9.328c1.232 0 2.288-.308 3.168-.924.909-.616 1.364-1.467 1.364-2.552 0-1.496-.396-2.523-1.188-3.08-.792-.587-2.2-.88-4.224-.88h-8.448v7.436Zm-3.036-10.208h12.496c2.493 0 4.371.557 5.632 1.672 1.261 1.085 1.892 2.655 1.892 4.708 0 2.23-1.041 3.813-3.124 4.752 2.581.616 3.872 2.45 3.872 5.5 0 4.547-2.86 6.82-8.58 6.82H204.26V15.548Zm3.036 12.584v8.096h9.064c2.112 0 3.564-.293 4.356-.88.792-.616 1.188-1.657 1.188-3.124 0-1.408-.396-2.435-1.188-3.08-.763-.675-2.141-1.012-4.136-1.012h-9.284Zm36.692 6.996 9.68-19.58h4.18V39h-3.036V23.6l.308-4.708-9.548 19.492h-3.212l-9.548-19.492.264 4.708V39h-3.036V15.548h4.224l9.724 19.58Zm43.131-3.608c-.616 2.552-1.965 4.576-4.048 6.072-2.053 1.496-4.561 2.244-7.524 2.244-3.784 0-6.82-1.144-9.108-3.432-2.259-2.317-3.388-5.353-3.388-9.108 0-3.755 1.144-6.776 3.432-9.064 2.317-2.317 5.339-3.476 9.064-3.476 3.755 0 6.761 1.144 9.02 3.432 2.288 2.259 3.432 5.28 3.432 9.064v.704h-21.56c0 2.757.821 4.928 2.464 6.512 1.672 1.584 3.887 2.376 6.644 2.376 1.995 0 3.711-.455 5.148-1.364 1.437-.939 2.435-2.259 2.992-3.96h3.432Zm-20.68-6.116h18.084c0-2.288-.851-4.15-2.552-5.588-1.701-1.437-3.843-2.156-6.424-2.156-2.611 0-4.781.719-6.512 2.156-1.731 1.437-2.596 3.3-2.596 5.588Zm45.999 5.06h3.124c-.322 2.757-1.554 5.016-3.696 6.776-2.141 1.73-4.737 2.596-7.788 2.596-3.725 0-6.746-1.144-9.064-3.432-2.288-2.317-3.432-5.353-3.432-9.108 0-3.755 1.144-6.776 3.432-9.064 2.318-2.317 5.339-3.476 9.064-3.476 2.963 0 5.471.792 7.524 2.376 2.083 1.584 3.33 3.652 3.74 6.204h-3.168c-1.173-3.784-3.901-5.676-8.184-5.676-2.757 0-5.001.88-6.732 2.64-1.701 1.76-2.552 4.092-2.552 6.996 0 2.933.836 5.265 2.508 6.996 1.702 1.701 3.99 2.552 6.864 2.552 2.142 0 3.96-.572 5.456-1.716 1.526-1.173 2.494-2.728 2.904-4.664ZM329.786 39h-3.036V18.32h-9.504v-2.772h22.044v2.772h-9.504V39Zm35.88-7.48c-.616 2.552-1.965 4.576-4.048 6.072-2.053 1.496-4.561 2.244-7.524 2.244-3.784 0-6.82-1.144-9.108-3.432-2.259-2.317-3.388-5.353-3.388-9.108 0-3.755 1.144-6.776 3.432-9.064 2.317-2.317 5.339-3.476 9.064-3.476 3.755 0 6.761 1.144 9.02 3.432 2.288 2.259 3.432 5.28 3.432 9.064v.704h-21.56c0 2.757.821 4.928 2.464 6.512 1.672 1.584 3.887 2.376 6.644 2.376 1.995 0 3.711-.455 5.148-1.364 1.437-.939 2.435-2.259 2.992-3.96h3.432Zm-20.68-6.116h18.084c0-2.288-.851-4.15-2.552-5.588-1.701-1.437-3.843-2.156-6.424-2.156-2.611 0-4.781.719-6.512 2.156-1.731 1.437-2.596 3.3-2.596 5.588Z"/><path fill="#CB9CFD" d="m169.002 10.791 2.369 10.489 9.092-5.742-5.741 9.093L185.211 27l-10.489 2.37 5.741 9.091-9.092-5.741-2.369 10.489-2.369-10.489-9.093 5.742 5.742-9.093L152.793 27l10.489-2.37-5.742-9.091 9.093 5.741 2.369-10.489Z"/><path fill="#fff" d="M3.784 39V7.056h12.98c3.96 0 6.908.777 8.844 2.332 1.936 1.525 2.904 3.887 2.904 7.084 0 3.227-.968 5.603-2.904 7.128-1.936 1.525-4.884 2.288-8.844 2.288H6.952V39H3.784Zm3.168-16.192h9.24c3.227 0 5.53-.44 6.908-1.32 1.379-.91 2.068-2.596 2.068-5.06 0-2.435-.69-4.107-2.068-5.016-1.379-.91-3.681-1.364-6.908-1.364h-9.24v12.76Zm44.986 3.476c-1.027.557-3.726 1.173-8.096 1.848-2.934.44-4.957.939-6.072 1.496-1.115.528-1.672 1.525-1.672 2.992 0 1.232.528 2.23 1.584 2.992 1.085.763 2.581 1.144 4.488 1.144 2.874 0 5.221-.675 7.04-2.024 1.819-1.35 2.728-3.11 2.728-5.28v-3.168Zm5.676 9.724v2.64c-.939.293-1.804.44-2.596.44-1.027 0-1.775-.279-2.244-.836-.44-.557-.719-1.51-.836-2.86-1.32 1.467-2.772 2.523-4.356 3.168s-3.476.968-5.676.968c-2.875 0-5.075-.601-6.6-1.804-1.525-1.232-2.288-2.963-2.288-5.192 0-2.112.821-3.784 2.464-5.016 1.173-.88 3.945-1.613 8.316-2.2a48.714 48.714 0 0 1 1.98-.264 49.442 49.442 0 0 1 1.716-.176c.381-.059.836-.132 1.364-.22.528-.088.91-.176 1.144-.264.264-.117.542-.25.836-.396.293-.176.498-.367.616-.572.146-.205.264-.455.352-.748.088-.293.132-.63.132-1.012 0-2.61-2.17-3.916-6.512-3.916-5.368 0-8.155 1.819-8.36 5.456H34.03c.352-5.485 4.018-8.228 11-8.228 4.253 0 7.128.924 8.624 2.772.586.733.953 1.525 1.1 2.376.176.85.264 1.98.264 3.388V34.952c.03.205.088.425.176.66.088.235.22.396.396.484.176.088.41.132.704.132.44 0 .88-.073 1.32-.22Zm24.215-5.544h3.124c-.323 2.757-1.555 5.016-3.696 6.776-2.141 1.73-4.737 2.596-7.788 2.596-3.725 0-6.747-1.144-9.064-3.432-2.288-2.317-3.432-5.353-3.432-9.108 0-3.755 1.144-6.776 3.432-9.064 2.317-2.317 5.339-3.476 9.064-3.476 2.963 0 5.47.792 7.524 2.376 2.083 1.584 3.33 3.652 3.74 6.204h-3.168c-1.173-3.784-3.901-5.676-8.184-5.676-2.757 0-5.001.88-6.732 2.64-1.701 1.76-2.552 4.092-2.552 6.996 0 2.933.836 5.265 2.508 6.996 1.701 1.701 3.99 2.552 6.864 2.552 2.141 0 3.96-.572 5.456-1.716 1.525-1.173 2.493-2.728 2.904-4.664ZM99.176 39H96.14V18.32h-9.504v-2.772h22.044v2.772h-9.504V39Zm13.221 0V15.548h3.036v19.844l14.96-19.844h3.784V39h-3.036V19.068L116.137 39h-3.74ZM22.704 85.47h3.124c-.323 2.757-1.555 5.016-3.696 6.776-2.141 1.73-4.737 2.596-7.788 2.596-3.725 0-6.747-1.144-9.064-3.432-2.288-2.317-3.432-5.353-3.432-9.108 0-3.755 1.144-6.776 3.432-9.064 2.317-2.317 5.339-3.476 9.064-3.476 2.963 0 5.47.792 7.524 2.376 2.083 1.584 3.33 3.652 3.74 6.204H22.44c-1.173-3.784-3.901-5.676-8.184-5.676-2.757 0-5.001.88-6.732 2.64-1.701 1.76-2.552 4.092-2.552 6.996 0 2.933.836 5.265 2.508 6.996 1.701 1.701 3.99 2.552 6.864 2.552 2.141 0 3.96-.572 5.456-1.716 1.525-1.174 2.493-2.728 2.904-4.664Z"/></svg>