<svg width="120" height="120" viewBox="0 0 120 120" fill="none" xmlns="http://www.w3.org/2000/svg">
<g clip-path="url(#clip0_115_1173)">
<path d="M99.8926 90.1831H107.712V82.6427H117.723V77.6876H107.712V74.93H120V69.9749H99.8926V90.1831ZM77.3362 90.1831H85.1558V82.6427H95.1665V77.6876H85.1558V74.93H97.4436V69.9749H77.3362V90.1831ZM60.1504 83.2459L62.6853 76.1364L65.0913 83.2459H60.1504ZM49.1944 90.1831H57.5725L58.3029 88.2011H66.8529L67.4973 90.1831H75.9184L67.7981 70.0179H57.9162L49.1944 90.1831ZM39.957 70.0179H24.6187V90.1831H32.5242V84.0215H37.1643C39.0548 84.0215 39.8281 84.5386 40 86.0036C40.2148 87.684 39.9141 89.1921 40.5156 90.14H49.1515V89.8384C48.2062 89.3644 48.2062 87.684 48.0773 84.7971C47.9484 82.4704 47.7336 81.3932 45.5854 80.4883C47.6477 79.6697 48.8937 77.7738 48.8937 75.3608C48.8937 73.4219 48.0773 71.8707 46.5736 70.9659C45.3276 70.2334 43.1364 70.0179 39.957 70.0179ZM32.5242 78.7217V75.1023H36.8636C39.1407 75.1023 40.3008 75.3178 40.3008 76.8689C40.3008 78.3339 39.1837 78.7217 37.0784 78.7217H32.5242ZM7.26101 90.1831H15.0806V75.1023H22.3845V69.9749H0V75.1023H7.26101V90.1831Z" fill="white"/>
<path d="M42.1912 110.951H50.0107C53.0183 110.951 54.3931 111.942 54.3931 114.355C54.3931 116.596 52.8034 117.372 49.5811 117.372H42.1912V110.951ZM42.1912 102.463H49.9678C52.5886 102.463 53.8346 103.282 53.8346 105.35C53.8346 107.634 52.4168 108.28 49.3663 108.28H42.1912V102.463ZM39.3126 120H50.2256C55.0376 120 57.3147 118.147 57.3147 114.097C57.3147 111.468 55.9399 109.831 53.4479 109.357C55.5532 108.538 56.6273 107.03 56.6273 104.919C56.6273 101.731 54.4791 99.8347 50.4834 99.8347H39.3126V120ZM22.4275 111.598L26.5091 103.023L30.3759 111.598H22.4275ZM15.5532 120H18.5607L21.2245 114.226H31.493L34.0279 120H36.9925L28.0559 99.8347H25.0913L15.5532 120ZM2.83566 99.8347H0V120H15.1665V117.372H2.83566V99.8347Z" fill="white"/>
<path d="M67.3258 103.368V104.23C67.3258 105.005 66.5524 105.522 65.7791 105.522C65.4353 105.522 64.9627 105.35 64.9627 104.747C64.9627 104.057 65.4783 103.885 66.1228 103.756C66.8961 103.583 67.1539 103.497 67.3258 103.368ZM65.1346 102.118C65.1776 101.731 65.3494 101.214 66.2087 101.214C66.6383 101.214 67.3258 101.257 67.3258 101.989C67.3258 102.291 67.068 102.506 66.3376 102.549C64.7049 102.679 63.2871 103.325 63.2871 104.833C63.2871 106.169 64.2753 106.729 65.2635 106.729C66.4235 106.729 66.9821 106.169 67.3687 105.781C67.4117 106.169 67.4117 106.255 67.5406 106.556H69.3881V106.298C69.1733 106.212 69.0014 106.039 69.0014 105.264V101.731C69.0014 100.093 67.3258 99.8347 66.3806 99.8347C65.0487 99.8347 63.6738 100.136 63.459 102.118H65.1346Z" fill="white"/>
<path d="M72.1375 100.007H70.4619V109.228H72.1805V105.738H72.2235C72.4383 106.083 72.8679 106.772 74.0709 106.772C76.0043 106.772 76.8636 105.048 76.8636 103.282C76.8636 100.998 75.5747 99.8779 74.1139 99.8779C72.9539 99.8779 72.4812 100.481 72.1805 100.998H72.1375V100.007ZM73.5983 101.3C74.7584 101.3 75.0591 102.377 75.0591 103.411C75.0591 104.402 74.6295 105.307 73.5554 105.307C72.4383 105.307 72.1375 104.101 72.1375 103.325C72.1375 102.291 72.5242 101.3 73.5983 101.3Z" fill="white"/>
<path d="M79.6561 100.007H77.9805V109.228H79.6991V105.738H79.742C79.9568 106.083 80.3865 106.772 81.5895 106.772C83.5229 106.772 84.3822 105.048 84.3822 103.282C84.3822 100.998 83.0933 99.8779 81.6325 99.8779C80.4724 99.8779 79.9998 100.481 79.6991 100.998H79.6561V100.007ZM81.1598 101.3C82.3199 101.3 82.6206 102.377 82.6206 103.411C82.6206 104.402 82.191 105.307 81.1169 105.307C79.9998 105.307 79.6991 104.101 79.6991 103.325C79.6561 102.291 80.0428 101.3 81.1598 101.3Z" fill="white"/>
<path d="M91.0414 101.989C90.9125 100.136 89.3658 99.8347 88.1198 99.8347C86.0575 99.8347 85.499 101.084 85.499 102.032C85.499 104.488 89.5377 103.67 89.5377 104.747C89.5377 105.005 89.3228 105.436 88.4636 105.436C87.3894 105.436 87.0457 105.005 87.0457 104.488H85.2842C85.2842 106.255 86.9598 106.772 88.4206 106.772C89.4517 106.772 91.2992 106.427 91.2992 104.531C91.2992 102.118 87.2176 102.851 87.2176 101.817C87.2176 101.515 87.3465 101.17 88.2917 101.17C89.2369 101.17 89.3658 101.601 89.4517 102.032H91.0414V101.989Z" fill="white"/>
<path fill-rule="evenodd" clip-rule="evenodd" d="M20.0853 7.1525L8.95748 26.4559L3.58691 23.3536L14.7147 4.00708L20.0853 7.1525ZM39.6771 41.1058H17.4215V47.3536H39.6771V41.1058ZM36.9703 7.1525L48.0981 26.4559L53.4687 23.3536L42.3409 4.00708L36.9703 7.1525Z" fill="black"/>
<path fill-rule="evenodd" clip-rule="evenodd" d="M20.6004 0L22.2331 2.80072L23.8228 5.60144L22.2331 8.35907L20.6004 11.1598H17.4211H14.1987L12.5661 8.35907L10.9764 5.60144L12.5661 2.80072L14.1987 0H17.4211H20.6004ZM9.47269 19.3465L11.1053 22.1041L12.695 24.9048L11.1053 27.7056L9.47269 30.5063H6.29332H3.07097L1.43832 27.7056L-0.151367 24.9048L1.43832 22.1041L3.07097 19.3465H6.29332H9.47269ZM31.7284 19.3465L33.361 22.1041L34.9507 24.9048L33.361 27.7056L31.7284 30.5063H28.549H25.3266L23.694 27.7056L22.1043 24.9048L23.694 22.1041L25.3266 19.3465H28.549H31.7284ZM55.6167 22.1041L53.984 19.3465H50.8046H47.5823L45.9926 22.1041L44.36 24.9048L45.9926 27.7056L47.5823 30.5063H50.8046H53.984L55.6167 27.7056L57.2064 24.9048L55.6167 22.1041ZM44.4888 2.80072L42.8561 0H39.6767H36.4544L34.8647 2.80072L33.232 5.60144L34.8647 8.35907L36.4544 11.1598H39.6767H42.8561L44.4888 8.35907L46.0784 5.60144L44.4888 2.80072ZM14.1987 49.8097H17.4211H20.6004L22.2331 47.0521L23.8228 44.2513L22.2331 41.4506L20.6004 38.6499H17.4211H14.1987L12.5661 41.4506L10.9764 44.2513L12.5661 47.0521L14.1987 49.8097ZM39.6767 49.8097H36.4544L34.8647 47.0521L33.232 44.2513L34.8647 41.4506L36.4544 38.6499H39.6767H42.8561L44.4888 41.4506L46.0784 44.2513L44.4888 47.0521L42.8561 49.8097H39.6767Z" fill="white"/>
</g>
<defs>
<clipPath id="clip0_115_1173">
<rect width="120" height="120" fill="white"/>
</clipPath>
</defs>
</svg>
