<svg width="120" height="120" viewBox="0 0 120 120" fill="none" xmlns="http://www.w3.org/2000/svg">
<path fill-rule="evenodd" clip-rule="evenodd" d="M20.3271 4.01074L42.5696 42.6806L37.1958 45.8001L14.9332 7.15051L20.3271 4.01074ZM42.5694 4.01074L53.721 23.3558L48.327 26.4753L37.1957 7.15051L42.5694 4.01074ZM20.3068 42.6806L9.1957 23.3558L3.80176 26.455L14.9331 45.8001L20.3068 42.6806Z" fill="#699CFC"/>
<path fill-rule="evenodd" clip-rule="evenodd" d="M20.8321 0L22.4482 2.79541L24.0442 5.57056L22.4482 8.36597L20.8321 11.1614H17.6199H14.4078L12.8119 8.36597L11.1957 5.57056L12.8119 2.79541L14.4078 0H17.6199H20.8321ZM9.70082 19.3248L11.317 22.1202L12.9129 24.9156L11.317 27.711L9.70082 30.4862H6.4887H3.27657L1.68061 27.711L0.0644531 24.9156L1.68061 22.1202L3.27657 19.3248H6.4887H9.70082ZM31.9635 19.3248L33.5797 22.1202L35.1756 24.9156L33.5797 27.711L31.9635 30.4862H28.7514H25.5393L23.9433 27.711L22.3271 24.9156L23.9433 22.1202L25.5393 19.3248H28.7514H31.9635ZM55.8422 22.1202L54.226 19.3248H51.0139H47.8018L46.1856 22.1202L44.5897 24.9156L46.2058 27.711L47.8018 30.4862H51.0139H54.226L55.8422 27.711L57.4381 24.9156L55.8422 22.1202ZM44.7109 2.79541L43.0948 0H39.8826H36.6705L35.0746 2.79541L33.4584 5.59082L35.0746 8.36597L36.6705 11.1614H39.8826H43.0948L44.7109 8.36597L46.3069 5.59082L44.7109 2.79541ZM14.4078 49.8312H17.6199H20.8321L22.4482 47.0358L24.0442 44.2404L22.4482 41.445L20.8321 38.6698H17.6199H14.4078L12.8119 41.445L11.1957 44.2404L12.8119 47.0358L14.4078 49.8312ZM39.8826 49.8312H36.6705L35.0746 47.0358L33.4584 44.2404L35.0746 41.445L36.6705 38.6698H39.8826H43.0948L44.7109 41.445L46.3069 44.2404L44.7109 47.0358L43.0948 49.8312H39.8826Z" fill="white"/>
<path d="M99.9192 90.1824H107.737V82.6469H117.737V77.7043H107.737V74.9494H120V70.0068H99.899V90.1824H99.9192ZM77.3535 90.1824H85.1717V82.6469H95.1717V77.7043H85.1717V74.9494H97.4545V70.0068H77.3535V90.1824ZM60.1414 83.2344L62.6869 76.1243L65.0909 83.2344H60.1414ZM49.2121 90.1824H57.5556L58.2828 88.177H66.8485L67.5152 90.1824H75.9394L67.8182 70.0068H57.9192L49.2121 90.1824ZM39.9596 70.0068H24.6465V90.1824H32.5455V84.0446H37.2121C39.1313 84.0446 39.8788 84.5511 40.0404 86.05C40.2424 87.7516 39.9596 89.2101 40.5657 90.1824H49.2121V89.8785C48.2626 89.4126 48.2626 87.7313 48.1212 84.8549C48.0202 82.5457 47.7576 81.4315 45.6364 80.5403C47.7172 79.73 48.9293 77.8259 48.9293 75.4356C48.9293 73.491 48.1212 71.9717 46.6263 71.0399C45.3333 70.2499 43.1313 70.0068 39.9596 70.0068ZM32.5455 78.7172V75.1115H36.8889C39.1515 75.1115 40.3232 75.3343 40.3232 76.8536C40.3232 78.3323 39.2121 78.7172 37.0707 78.7172H32.5455ZM7.25253 90.1824H15.0707V75.1115H22.3636V70.0068H0V75.1115H7.25253V90.1824Z" fill="white"/>
<path d="M42.1818 110.945H50C52.9899 110.945 54.3838 111.918 54.3838 114.328C54.3838 116.556 52.8081 117.367 49.596 117.367H42.202V110.945H42.1818ZM42.1818 102.458H49.9394C52.5657 102.458 53.798 103.268 53.798 105.354C53.798 107.623 52.3838 108.292 49.3333 108.292H42.1818V102.458ZM39.3333 120H50.2626C55.0505 120 57.3535 118.136 57.3535 114.105C57.3535 111.492 56 109.851 53.4748 109.345C55.5758 108.515 56.6667 107.036 56.6667 104.889C56.6667 101.688 54.5051 99.8042 50.5455 99.8042H39.3535V120H39.3333ZM22.4242 111.614L26.505 103.025L30.3636 111.614H22.4242ZM15.5556 120H18.5859L21.2525 114.247H31.5152L34.0606 120H37.0303L28.0808 99.8245H25.1111L15.5556 120ZM2.84848 99.8245H0V120H15.1515V117.367H2.84848V99.8245Z" fill="white"/>
<path fill-rule="evenodd" clip-rule="evenodd" d="M90.1212 98.2241V99.9864H89.2525V101.222H90.1212V105.213C90.1212 106.063 90.3839 106.631 92.101 106.631C92.3636 106.631 92.6869 106.61 92.9091 106.59V105.294C92.8687 105.314 92.6667 105.314 92.5657 105.314C91.8788 105.314 91.8384 105.172 91.8384 104.787V101.202H92.9091V99.9662H91.8384V98.2039H90.1212V98.2241ZM70.4646 106.55V99.9864V99.9662H72.1212V101.101H72.1414C72.5051 100.452 72.8889 99.8041 73.9394 99.8041C74.0202 99.8041 74.202 99.8041 74.2828 99.8244V101.587C74.1212 101.566 73.9394 101.546 73.7778 101.546C72.4445 101.546 72.1818 102.377 72.1818 103.106V106.55H70.4646ZM66.4041 105.314C67.2728 105.314 67.5758 104.463 67.5758 104.159V104.18H69.293C69.2324 104.868 68.7071 106.752 66.3031 106.752C63.8586 106.752 63.293 104.848 63.293 103.471C63.293 101.344 64.2021 99.8244 66.4243 99.8244C67.4546 99.8244 69.1516 100.29 69.3132 102.336H67.5758C67.495 101.911 67.2324 101.283 66.4243 101.283C65.3536 101.283 65.0707 102.377 65.0707 103.187C65.0707 103.876 65.1112 105.314 66.4041 105.314ZM74.8688 99.9865L77.2728 106.813C77.1112 107.724 76.7677 107.805 76.1415 107.805C76.056 107.805 75.9779 107.798 75.9161 107.792L75.9158 107.792L75.9141 107.792C75.8982 107.791 75.8833 107.789 75.8697 107.788C75.8496 107.786 75.8323 107.785 75.8182 107.785V109.163C76.0607 109.183 76.3637 109.183 76.6061 109.183C78.1011 109.183 78.4041 108.555 79.1314 106.428L81.3738 99.9865H79.5556L78.2223 104.828H78.1819L76.7879 99.9865H74.8688ZM82.3031 99.9865H83.9597V100.938H83.9799C84.2829 100.432 84.7678 99.8244 85.9193 99.8244C87.3738 99.8244 88.6668 100.959 88.6668 103.227C88.6668 105.03 87.8385 106.732 85.8991 106.732C84.687 106.732 84.2627 106.063 84.0607 105.719L84.0203 105.699V109.183H82.3031V99.9865ZM86.9092 103.41C86.9092 102.356 86.6062 101.303 85.4344 101.303C84.3435 101.303 83.9597 102.296 83.9799 103.309C83.9799 104.078 84.2829 105.294 85.394 105.294C86.4849 105.294 86.9092 104.382 86.9092 103.41ZM93.8385 103.225C93.8385 100.89 95.415 99.819 97.148 99.819C98.881 99.819 100.445 100.878 100.445 103.213C100.445 105.548 98.881 106.631 97.148 106.631C95.415 106.631 93.8385 105.56 93.8385 103.225ZM98.7005 103.225C98.7005 102.394 98.4598 101.251 97.148 101.251C95.8362 101.251 95.5835 102.382 95.5835 103.213C95.5835 104.043 95.8362 105.199 97.148 105.199C98.4598 105.199 98.7005 104.055 98.7005 103.225Z" fill="white"/>
</svg>
