<svg width="120" height="120" viewBox="0 0 120 120" fill="none" xmlns="http://www.w3.org/2000/svg">
<g clip-path="url(#clip0_115_1150)">
<path d="M99.9089 90.1664H107.719V82.6297H117.735V77.677H107.738V74.9168H120.02V69.9641H99.9089V90.1664ZM77.3576 90.1664H85.1676V82.6297H95.1643V77.677H85.1676V74.9168H97.4488V69.9641H77.3576V90.1664ZM60.1367 83.217L62.6944 76.1109L65.096 83.217H60.1367ZM49.2223 90.1664H57.5594L58.2818 88.1697H66.8532L67.5171 90.1664H75.9518L67.8295 69.9837H57.9304L49.2223 90.1664ZM39.9675 70.0033H24.6404V90.186H32.548V84.0392H37.1949C39.1084 84.0392 39.8503 84.5481 40.026 86.0359C40.2213 87.739 39.9479 89.2072 40.5532 90.1664H49.2027V89.8532C48.2655 89.3834 48.2655 87.7194 48.1289 84.8222C48.0117 82.5122 47.7774 81.3964 45.6297 80.5155C47.6993 79.7129 48.9294 77.7945 48.9294 75.4062C48.9294 73.4682 48.1289 71.9413 46.6255 71.0212C45.3368 70.2382 43.1305 70.0033 39.9675 70.0033ZM32.5285 78.7145V75.093H36.8825C39.1474 75.093 40.3189 75.3083 40.3189 76.8352C40.3189 78.3034 39.206 78.6949 37.0778 78.6949H32.5285V78.7145ZM7.26326 90.1664H15.0732V75.1126H22.356V70.0033H0V75.1126H7.26326V90.1664Z" fill="white"/>
<path d="M42.1738 110.936H49.9837C52.971 110.936 54.3573 111.915 54.3573 114.323C54.3573 116.555 52.7758 117.357 49.5542 117.357H42.1738V110.936ZM42.1738 102.46H49.9252C52.561 102.46 53.7716 103.263 53.7716 105.357C53.7716 107.628 52.3658 108.294 49.3004 108.294H42.1738V102.46ZM39.3231 120H50.2376C55.0407 120 57.3251 118.14 57.3251 114.108C57.3251 111.504 55.9584 109.86 53.4396 109.351C55.5483 108.509 56.6222 107.041 56.6222 104.907C56.6222 101.716 54.4549 99.8174 50.4914 99.8174H39.3036V120H39.3231ZM22.4146 111.602L26.4953 103.008L30.3417 111.602H22.4146ZM15.5418 120H18.5682L21.2236 114.245H31.5132L34.0709 120H37.0387L28.0963 99.8174H25.1285L15.5418 120ZM2.85063 99.8174H0V120H15.1513V117.357H2.85063V99.8174Z" fill="white"/>
<path fill-rule="evenodd" clip-rule="evenodd" d="M89.7811 103.336C89.7811 102.279 89.4882 101.222 88.3167 101.222C87.2233 101.222 86.8524 102.2 86.8328 103.238C86.8328 104.021 87.1452 105.235 88.2581 105.235C89.3515 105.235 89.7811 104.315 89.7811 103.336ZM89.7225 97.6001H91.4407V106.468H89.7616V105.646H89.742C89.3125 106.37 88.551 106.644 87.8481 106.644C85.8956 106.644 85.0756 104.921 85.0756 103.12C85.0756 100.85 86.3642 99.7339 87.8091 99.7339C88.922 99.7339 89.4296 100.341 89.703 100.752H89.7225V97.6001ZM74.7875 104.326C74.7875 104.64 74.4751 105.481 73.616 105.481C72.3078 105.481 72.2883 104.052 72.2883 103.348C72.2883 102.525 72.5616 101.449 73.655 101.449C74.4751 101.449 74.7289 102.075 74.807 102.506H76.5447C76.3885 100.47 74.6899 100 73.655 100C71.4487 100 70.5311 101.507 70.5311 103.641C70.5311 105.012 71.0973 106.91 73.5574 106.91C75.959 106.91 76.4862 105.012 76.5447 104.346H74.7875V104.326ZM81.8059 103.563V104.405C81.8059 105.207 81.0249 105.697 80.2634 105.697C79.9315 105.697 79.4629 105.52 79.4629 104.894C79.4629 104.189 79.9901 104.013 80.6344 103.896C81.3373 103.798 81.6302 103.7 81.8059 103.563ZM79.5996 102.31C79.6386 101.938 79.7948 101.39 80.6539 101.39C81.0835 101.39 81.7864 101.429 81.7864 102.153C81.7864 102.467 81.513 102.662 80.7906 102.721C79.1505 102.858 77.7447 103.485 77.7447 104.992C77.7447 106.343 78.7405 106.91 79.7363 106.91C80.9078 106.91 81.474 106.362 81.8645 105.951C81.9035 106.323 81.9231 106.421 82.0207 106.734H83.8755V106.46C83.6608 106.382 83.5046 106.225 83.5046 105.442V101.899C83.5046 100.274 81.8254 100 80.9078 100C79.5605 100 78.1743 100.274 77.979 102.29H79.5996V102.31ZM94.3979 102.799C94.4955 101.938 94.925 101.429 95.7451 101.429C96.2918 101.429 96.9751 101.762 97.0728 102.799H94.3979ZM97.0142 104.796C96.8775 105.266 96.3894 105.52 95.9013 105.52C94.515 105.52 94.3979 104.405 94.3979 103.915H98.8495V103.269C98.8495 101.018 97.6195 100 95.7841 100C92.914 100 92.6406 102.525 92.6406 103.328C92.6406 106.029 94.0659 106.91 95.9013 106.91C97.0142 106.91 98.3224 106.382 98.7714 104.816H97.0142V104.796ZM100.05 106.7V100.185H101.711V101.148H101.748C101.969 100.703 102.449 100 103.593 100C104.516 100 104.959 100.333 105.402 101.036C105.586 100.74 106.103 100 107.137 100C108.392 100 109.388 100.74 109.388 102.184V106.737H107.69V102.739C107.69 101.777 107.284 101.444 106.768 101.444C105.919 101.444 105.586 102.036 105.586 102.813V106.737H103.852V102.776C103.852 102.221 103.704 101.444 102.818 101.444C102.006 101.444 101.748 101.999 101.748 102.702V106.7H100.05ZM110.588 100L112.992 106.827C112.831 107.738 112.487 107.819 111.861 107.819C111.776 107.819 111.697 107.812 111.636 107.806C111.595 107.802 111.562 107.799 111.538 107.799V109.176C111.78 109.197 112.083 109.197 112.326 109.197C113.821 109.197 114.124 108.569 114.851 106.442L117.093 100H115.275L113.942 104.841H113.901L112.507 100H110.588ZM67.2614 104.405V103.563C67.0856 103.7 66.7928 103.798 66.0899 103.896C65.4456 104.013 64.9184 104.189 64.9184 104.894C64.9184 105.52 65.387 105.697 65.7189 105.697C66.4804 105.697 67.2614 105.207 67.2614 104.405ZM66.1094 101.39C65.2503 101.39 65.0941 101.938 65.0551 102.31V102.29H63.4345C63.6297 100.274 65.016 100 66.3632 100C67.2809 100 68.96 100.274 68.96 101.899V105.442C68.96 106.225 69.1162 106.382 69.331 106.46V106.734H67.4762C67.3785 106.421 67.359 106.323 67.32 105.951C66.9295 106.362 66.3632 106.91 65.1917 106.91C64.196 106.91 63.2002 106.343 63.2002 104.992C63.2002 103.485 64.606 102.858 66.2461 102.721C66.9685 102.662 67.2418 102.467 67.2418 102.153C67.2418 101.429 66.539 101.39 66.1094 101.39Z" fill="white"/>
<path fill-rule="evenodd" clip-rule="evenodd" d="M32.2941 24.92L42.5252 7.14508L37.1363 4.01294L28.6833 18.683L20.2473 4.03252L14.8584 7.1255L25.0992 24.903L25.0895 24.92L25.0992 24.9369L14.8584 42.6948L20.2473 45.7878L28.6833 31.1511L37.1363 45.8074L42.5252 42.6753L32.2941 24.92Z" fill="black"/>
<path fill-rule="evenodd" clip-rule="evenodd" d="M20.7744 0L22.3754 2.79935L23.9765 5.57912L22.3754 8.37847L20.7744 11.1582H17.5528H14.3507L12.7301 8.37847L11.1291 5.57912L12.7301 2.79935L14.3507 0H17.5528H20.7744ZM9.6453 19.3214L11.2463 22.1207L12.8474 24.9201L11.2463 27.6998L9.6453 30.4992H6.42369H3.22161L1.60104 27.6998L0 24.9005L1.60104 22.1207L3.22161 19.3214H6.42369H9.6453ZM31.9037 19.3214L33.5047 22.1207L35.1253 24.9005L33.5047 27.6998L31.9037 30.4992H28.6821H25.48L23.879 27.6998L22.2584 24.9005L23.879 22.1207L25.48 19.3214H28.6821H31.9037ZM55.7631 22.1207L54.1621 19.3214H50.96H47.7384L46.1374 22.1207L44.5168 24.9201L46.1374 27.6998L47.7384 30.4992H50.96H54.1621L55.7631 27.6998L57.3837 24.9201L55.7631 22.1207ZM44.6338 2.79935L43.0328 0H39.8307H36.6091L35.0081 2.79935L33.3875 5.57912L35.0081 8.37847L36.6091 11.1582H39.8307H43.0328L44.6338 8.37847L46.2544 5.57912L44.6338 2.79935ZM14.3507 49.8206H17.5528H20.7744L22.3754 47.0212L23.9765 44.2414L22.3754 41.4421L20.7744 38.6623H17.5528H14.3507L12.7301 41.4421L11.1291 44.2414L12.7301 47.0212L14.3507 49.8206ZM39.8307 49.8206H36.6091L35.0081 47.0408L33.3875 44.2414L35.0081 41.4421L36.6091 38.6623H39.8307H43.0328L44.6338 41.4421L46.2544 44.2414L44.6338 47.0408L43.0328 49.8206H39.8307Z" fill="white"/>
</g>
<defs>
<clipPath id="clip0_115_1150">
<rect width="120" height="120" fill="white"/>
</clipPath>
</defs>
</svg>
