<svg width="120" height="120" viewBox="0 0 120 120" fill="none" xmlns="http://www.w3.org/2000/svg">
<g clip-path="url(#clip0_115_315)">
<path d="M99.863 90.3093H107.671V82.6804H117.74V77.732H107.671V75.0515H120V70.1031H99.863V90.3093V90.3093ZM77.2603 90.3093H85.0685V82.6804H95.137V77.732H85.0685V75.0515H97.3973V70.1031H77.2603V90.3093V90.3093ZM60.2055 83.299L62.6712 76.0825L65.137 83.299H60.2055ZM49.3151 90.3093H57.5342L58.3562 88.2474H66.9863L67.6027 90.3093H76.0274L67.8082 70.1031H57.9452L49.3151 90.3093ZM39.863 70.1031H24.6575V90.3093H32.4658V84.1237H37.1918C39.0411 84.1237 39.863 84.5361 40.0685 86.1856C40.274 87.835 40.0685 89.2783 40.6849 90.3093H49.3151V90.1031C48.2877 89.6907 48.2877 88.0412 48.2877 85.1546C48.0822 82.8866 47.8767 81.6495 45.8219 80.8247C47.8767 80 49.1096 78.1443 49.1096 75.6701C49.1096 73.8144 48.2877 72.1649 46.8493 71.3402C45.411 70.3093 43.1507 70.1031 39.863 70.1031ZM32.4658 78.7629V75.0515H36.9863C39.2466 75.0515 40.4795 75.2577 40.4795 76.701C40.4795 78.1443 39.4521 78.5567 37.1918 78.5567H32.4658V78.7629ZM7.19178 90.3093H15V75.2577H22.1918V70.1031H0V75.2577H7.19178V90.3093Z" fill="white"/>
<path d="M42.1233 110.928H49.9315C53.0137 110.928 54.2466 111.959 54.2466 114.227C54.2466 116.495 52.6027 117.32 49.5205 117.32H42.1233V110.928ZM42.1233 102.474H49.9315C52.6027 102.474 53.8356 103.299 53.8356 105.361C53.8356 107.629 52.3973 108.247 49.3151 108.247H42.1233V102.474ZM39.2466 120H50.137C54.863 120 57.3288 118.144 57.3288 114.021C57.3288 111.34 55.8904 109.691 53.4247 109.278C55.4794 108.454 56.7123 107.01 56.7123 104.742C56.7123 101.443 54.452 99.5876 50.5479 99.5876H39.4521V120H39.2466ZM22.3973 111.753L26.5068 103.093L30.411 111.753H22.3973ZM15.6164 120H18.4931L21.1644 114.227H31.4384L33.9041 120H36.9863L27.9452 99.7938H25.0685L15.6164 120ZM2.87671 100H0V120.206H15.2055V117.526H2.87671V100V100Z" fill="white"/>
<path fill-rule="evenodd" clip-rule="evenodd" d="M20.1586 4.12372L28.5444 18.6935L37.0079 4.12372L42.3504 7.2165L33.9246 21.8557H50.7751V28.0412H33.9246L42.3504 42.6804L37.0079 45.7732L28.5444 31.2034L20.1586 45.7732L14.6106 42.6804L23.1144 28.0412H6.18604V21.8557H23.1144L14.6106 7.2165L20.1586 4.12372Z" fill="#FD676A"/>
<path fill-rule="evenodd" clip-rule="evenodd" d="M20.5696 0L22.2134 2.8866L23.8573 5.56701L22.2134 8.45361L20.5696 11.134H17.2819H14.1997L12.5559 8.45361L10.9121 5.56701L12.5559 2.8866L14.1997 0H17.2819H20.5696ZM9.4737 19.3814L11.1175 22.0619L12.7614 24.9485L11.1175 27.6289L9.4737 30.5155H6.18603H3.10383L1.46 27.6289L-0.183838 24.9485L1.46 22.0619L3.10383 19.3814H6.18603H9.4737ZM31.6655 19.3814L33.3093 22.0619L34.9532 24.9485L33.3093 27.6289L31.6655 30.5155H28.5833H25.2956L23.6518 27.6289L22.008 24.9485L23.6518 22.0619L25.2956 19.3814H28.5833H31.6655ZM55.5011 22.0619L54.0628 19.3814H50.7751H47.4874L46.0491 22.0619L44.4052 24.9485L46.0491 27.6289L47.4874 30.5155H50.7751H54.0628L55.5011 27.6289L57.145 24.9485L55.5011 22.0619ZM44.4052 2.8866L42.7614 0H39.6792H36.3915L34.7477 2.8866L33.3093 5.56701L34.7477 8.45361L36.3915 11.134H39.6792H42.7614L44.4052 8.45361L46.0491 5.56701L44.4052 2.8866ZM14.1997 49.8969H17.2819H20.5696L22.2134 47.0103L23.8573 44.3299L22.2134 41.4433L20.5696 38.7629H17.2819H14.1997L12.5559 41.4433L10.9121 44.3299L12.5559 47.0103L14.1997 49.8969ZM39.6792 49.8969H36.3915L34.7477 47.0103L33.3093 44.3299L34.7477 41.4433L36.3915 38.7629H39.6792H42.7614L44.4052 41.4433L46.0491 44.3299L44.4052 47.0103L42.7614 49.8969H39.6792Z" fill="white"/>
<path d="M65.1059 101.249V107.2H63.2579V101.249H65.1059ZM63.2579 99.225H65.1059V100.644H63.2579V99.225ZM71.8623 101.249H73.7103V106.606C73.7103 107.508 73.3913 108.183 72.7533 108.63C72.1153 109.077 71.217 109.301 70.0583 109.301C67.9463 109.301 66.8903 108.612 66.8903 107.233H68.7273C68.7273 107.732 69.1747 107.981 70.0693 107.981C70.7367 107.981 71.2023 107.882 71.4663 107.684C71.7303 107.486 71.8623 107.134 71.8623 106.628V106.221C71.3783 106.705 70.689 106.947 69.7943 106.947C68.775 106.947 67.9463 106.676 67.3083 106.133C66.6777 105.59 66.3623 104.883 66.3623 104.01C66.3623 103.152 66.6777 102.444 67.3083 101.887C67.939 101.322 68.7567 101.04 69.7613 101.04C70.6487 101.04 71.349 101.286 71.8623 101.777V101.249ZM71.3893 105.176C71.7047 104.883 71.8623 104.494 71.8623 104.01C71.8623 103.526 71.7047 103.134 71.3893 102.833C71.074 102.532 70.6487 102.382 70.1133 102.382C69.5853 102.382 69.16 102.532 68.8373 102.833C68.522 103.134 68.3643 103.526 68.3643 104.01C68.3643 104.501 68.522 104.89 68.8373 105.176C69.1527 105.462 69.578 105.605 70.1133 105.605C70.6487 105.605 71.074 105.462 71.3893 105.176ZM77.4114 103.218H75.4974C75.4974 102.514 75.7834 101.975 76.3554 101.601C76.9274 101.227 77.7671 101.04 78.8744 101.04C79.2264 101.04 79.5381 101.058 79.8094 101.095C80.0881 101.124 80.3631 101.19 80.6344 101.293C80.9131 101.388 81.1441 101.517 81.3274 101.678C81.5107 101.839 81.6574 102.056 81.7674 102.327C81.8847 102.598 81.9434 102.917 81.9434 103.284V106.243C81.9434 106.668 82.0351 106.943 82.2184 107.068V107.2H80.1834L80.0954 106.551C79.4574 107.123 78.6287 107.409 77.6094 107.409C76.7807 107.409 76.1317 107.229 75.6624 106.87C75.1931 106.511 74.9584 106.034 74.9584 105.44C74.9584 104.846 75.1821 104.417 75.6294 104.153C76.0767 103.882 76.7954 103.706 77.7854 103.625C77.9174 103.618 78.1081 103.603 78.3574 103.581C78.7241 103.559 78.9844 103.541 79.1384 103.526C79.2997 103.504 79.4721 103.471 79.6554 103.427C79.8461 103.376 79.9744 103.31 80.0404 103.229C80.1064 103.141 80.1394 103.027 80.1394 102.888C80.1394 102.441 79.6811 102.217 78.7644 102.217C77.8624 102.217 77.4114 102.551 77.4114 103.218ZM80.1394 104.329C79.9121 104.454 79.4097 104.556 78.6324 104.637C78.3171 104.666 78.0824 104.696 77.9284 104.725C77.7744 104.747 77.6167 104.787 77.4554 104.846C77.2941 104.897 77.1841 104.967 77.1254 105.055C77.0667 105.143 77.0374 105.257 77.0374 105.396C77.0374 105.623 77.1254 105.807 77.3014 105.946C77.4847 106.085 77.7304 106.155 78.0384 106.155C78.6691 106.155 79.1751 106.005 79.5564 105.704C79.9451 105.403 80.1394 105.015 80.1394 104.538V104.329ZM85.3094 102.14C86.0061 101.407 86.7834 101.04 87.6414 101.04C88.2134 101.04 88.7047 101.157 89.1154 101.392C89.5261 101.627 89.8121 101.938 89.9734 102.327C90.6334 101.469 91.4547 101.04 92.4374 101.04C93.3834 101.04 94.0434 101.286 94.4174 101.777C94.7987 102.261 94.9894 102.976 94.9894 103.922V107.2H93.1414V104.318C93.1414 103.68 93.0497 103.211 92.8664 102.91C92.6831 102.609 92.3421 102.459 91.8434 102.459C91.3227 102.459 90.9047 102.628 90.5894 102.965C90.2741 103.295 90.1164 103.728 90.1164 104.263V107.2H88.3344V104.318C88.3344 103.68 88.2427 103.211 88.0594 102.91C87.8761 102.609 87.5351 102.459 87.0364 102.459C86.5157 102.459 86.0977 102.628 85.7824 102.965C85.4671 103.295 85.3094 103.728 85.3094 104.263V107.2H83.4614V101.249H85.3094V102.14ZM98.4389 101.249V107.2H96.5909V101.249H98.4389ZM96.5909 99.225H98.4389V100.644H96.5909V99.225ZM101.895 101.249V102.085C102.541 101.388 103.314 101.04 104.216 101.04C105.162 101.04 105.822 101.275 106.196 101.744C106.578 102.206 106.768 102.91 106.768 103.856V107.2H104.92V104.197C104.92 103.566 104.829 103.119 104.645 102.855C104.469 102.591 104.128 102.459 103.622 102.459C103.087 102.459 102.665 102.609 102.357 102.91C102.049 103.203 101.895 103.61 101.895 104.131V107.2H100.047V101.249H101.895ZM113.413 101.249H115.261V106.606C115.261 107.508 114.942 108.183 114.304 108.63C113.666 109.077 112.768 109.301 111.609 109.301C109.497 109.301 108.441 108.612 108.441 107.233H110.278C110.278 107.732 110.725 107.981 111.62 107.981C112.287 107.981 112.753 107.882 113.017 107.684C113.281 107.486 113.413 107.134 113.413 106.628V106.221C112.929 106.705 112.24 106.947 111.345 106.947C110.326 106.947 109.497 106.676 108.859 106.133C108.228 105.59 107.913 104.883 107.913 104.01C107.913 103.152 108.228 102.444 108.859 101.887C109.49 101.322 110.307 101.04 111.312 101.04C112.199 101.04 112.9 101.286 113.413 101.777V101.249ZM112.94 105.176C113.255 104.883 113.413 104.494 113.413 104.01C113.413 103.526 113.255 103.134 112.94 102.833C112.625 102.532 112.199 102.382 111.664 102.382C111.136 102.382 110.711 102.532 110.388 102.833C110.073 103.134 109.915 103.526 109.915 104.01C109.915 104.501 110.073 104.89 110.388 105.176C110.703 105.462 111.129 105.605 111.664 105.605C112.199 105.605 112.625 105.462 112.94 105.176Z" fill="white"/>
</g>
<defs>
<clipPath id="clip0_115_315">
<rect width="120" height="120" fill="white"/>
</clipPath>
</defs>
</svg>
