<svg width="120" height="120" viewBox="0 0 120 120" fill="none" xmlns="http://www.w3.org/2000/svg">
<g clip-path="url(#clip0_115_1217)">
<path fill-rule="evenodd" clip-rule="evenodd" d="M15.7617 2.44287L3.72852 23.3559L9.11763 26.4651L19.3422 8.69827H38.0195L48.244 26.4651L53.6332 23.3559L41.5999 2.44287H15.7617ZM25.9862 23.3559L14.8758 42.6773L20.2649 45.7865L28.6808 31.1659L37.1335 45.8235L42.5227 42.6773L31.3753 23.3559H25.9862Z" fill="white"/>
<path fill-rule="evenodd" clip-rule="evenodd" d="M15.8262 2.44287L3.79297 23.3559L9.18208 26.4651L19.4066 8.69827H38.084L48.3085 26.4651L53.6976 23.3559L41.6644 2.44287H15.8262ZM26.0507 23.3559L14.9402 42.6773L20.3293 45.7865L28.7452 31.1659L37.198 45.8235L42.5871 42.6773L31.4398 23.3559H26.0507Z" fill="black"/>
<path fill-rule="evenodd" clip-rule="evenodd" d="M14.423 0H17.6344H20.8457L22.4329 2.77606L24.057 5.58914L22.4329 8.36521L20.8457 11.1783H17.6344H14.423L12.7989 8.36521L11.2117 5.58914L12.7989 2.77606L14.423 0ZM9.69841 30.4997L11.3225 27.6866L12.9097 24.9106L11.3225 22.1345L9.69841 19.3214H6.48709H3.27577L1.68857 22.1345L0.0644531 24.9106L1.68857 27.6866L3.27577 30.4997H6.48709H9.69841ZM31.9562 30.4997L33.5803 27.6866L35.1675 24.9106L33.5803 22.1345L31.9562 19.3214H28.7449H25.5336L23.9464 22.1345L22.3223 24.9106L23.9464 27.6866L25.5336 30.4997H28.7449H31.9562ZM55.8382 27.6866L54.214 30.4997H51.0027H47.7914L46.2042 27.6866L44.5801 24.9106L46.2042 22.1345L47.7914 19.3214H51.0027H54.214L55.8382 22.1345L57.4254 24.9106L55.8382 27.6866ZM20.8457 49.8211L22.4329 47.045L24.057 44.232L22.4329 41.4559L20.8457 38.6798H17.6344H14.423L12.7989 41.4559L11.2117 44.232L12.7989 47.045L14.423 49.8211H17.6344H20.8457ZM44.6907 47.045L43.1035 49.8211H39.8922H36.6809L35.0567 47.045L33.4695 44.232L35.0567 41.4559L36.6809 38.6798H39.8922H43.1035L44.6907 41.4559L46.3148 44.232L44.6907 47.045ZM39.8922 0H36.6809L35.0567 2.77606L33.4695 5.58914L35.0567 8.36521L36.6809 11.1783H39.8922H43.1035L44.6907 8.36521L46.3148 5.58914L44.6907 2.77606L43.1035 0H39.8922Z" fill="white"/>
<path d="M99.92 90.1666H107.745V82.6528H117.748V77.6928H107.745V74.9538H120.037V69.9939H99.9569V90.1666H99.92ZM77.33 90.1666H85.1553V82.6528H95.1584V77.6928H85.1553V74.9538H97.4469V69.9939H77.367V90.1666H77.33ZM60.1292 83.245L62.6761 76.1382L65.0754 83.245H60.1292ZM49.2033 90.1666H57.5454L58.2836 88.1679H66.8471L67.5115 90.1666H75.9274L67.8068 69.9939H57.9145L49.2033 90.1666ZM39.9754 69.9939H24.6201V90.1666H32.5192V84.0223H37.1701C39.0895 84.0223 39.8277 84.5405 40.0123 86.021C40.1969 87.7237 39.9385 89.2043 40.5291 90.1666H49.1664V89.8705C48.2067 89.3893 48.2067 87.7237 48.096 84.8366C47.9852 82.5417 47.7268 81.4313 45.586 80.5429C47.653 79.7286 48.8711 77.8039 48.8711 75.435C48.8711 73.4732 48.0591 71.9556 46.5826 71.0303C45.3276 70.253 43.1129 69.9939 39.9754 69.9939ZM32.5192 78.7292V75.1019H36.8748C39.1633 75.1019 40.3076 75.3239 40.3076 76.8415C40.3076 78.3221 39.2002 78.6922 37.0594 78.6922H32.5192V78.7292ZM7.27161 90.1666H15.0969V75.1019H22.3685V69.9939H0V75.1019H7.27161V90.1666Z" fill="white"/>
<path d="M42.1901 110.931H50.0154C53.0052 110.931 54.4079 111.894 54.4079 114.337C54.4079 116.558 52.8207 117.372 49.6093 117.372H42.227V110.931H42.1901ZM42.1901 102.455H49.9416C52.5623 102.455 53.7804 103.269 53.7804 105.342C53.7804 107.637 52.3777 108.303 49.3141 108.303H42.1532V102.455H42.1901ZM39.311 120H50.2369C55.0354 120 57.3239 118.149 57.3239 114.115C57.3239 111.487 55.9582 109.858 53.4482 109.377C55.5521 108.525 56.6226 107.082 56.6226 104.935C56.6226 101.752 54.4448 99.8642 50.4952 99.8642H39.311V120ZM22.4054 111.598L26.4657 103.01L30.3045 111.598H22.4054ZM15.5398 120H18.5666L21.2242 114.263H31.5226L34.0695 120H37.0225L28.0898 99.8271H25.1369L15.5398 120ZM2.8422 99.8271H0V120H15.1707V117.372H2.8422V99.8271Z" fill="white"/>
<path d="M67.9072 104.641C67.7724 105.107 67.2823 105.364 66.7921 105.364C65.395 105.364 65.2847 104.249 65.2847 103.746H69.7577V103.097C69.7577 100.83 68.52 99.8127 66.6695 99.8127C63.7897 99.8127 63.5078 102.349 63.5078 103.146C63.5078 105.854 64.9416 106.749 66.7921 106.749C67.9195 106.749 69.2307 106.222 69.6842 104.641H67.9072ZM65.2847 102.619C65.3828 101.761 65.8239 101.234 66.645 101.234C67.1965 101.234 67.8827 101.565 67.9808 102.619H65.2847Z" fill="white"/>
<path d="M77.0134 97.6804H75.2855V100.842H75.261C74.9914 100.425 74.4767 99.8127 73.3615 99.8127C71.9032 99.8127 70.6165 100.928 70.6165 103.207C70.6165 105.009 71.4375 106.749 73.3983 106.749C74.1091 106.749 74.8811 106.479 75.2978 105.744H75.3223V106.577H77.0134V97.6804ZM73.8762 101.308C75.0649 101.308 75.359 102.374 75.359 103.428C75.359 104.408 74.9301 105.327 73.8272 105.327C72.712 105.327 72.3934 104.114 72.3934 103.33C72.3934 102.288 72.7733 101.308 73.8762 101.308Z" fill="white"/>
<path d="M81.697 102.754H78.2412V104.139H81.697V102.754Z" fill="white"/>
<path d="M83.2081 98.2196V99.9966H82.3257V101.234H83.2081V105.229C83.2081 106.087 83.4777 106.651 85.2056 106.651C85.4752 106.651 85.7938 106.639 86.0144 106.614V105.315C85.9776 105.327 85.7693 105.34 85.659 105.34C84.9605 105.34 84.936 105.193 84.936 104.813V101.234H86.0144V99.9966H84.936V98.2196H83.2081Z" fill="white"/>
<path d="M91.148 104.641C91.0132 105.107 90.523 105.364 90.0329 105.364C88.6358 105.364 88.5255 104.249 88.5255 103.746H92.9985V103.097C92.9985 100.83 91.7608 99.8127 89.9103 99.8127C87.0305 99.8127 86.7486 102.349 86.7486 103.146C86.7486 105.854 88.1824 106.749 90.0329 106.749C91.1603 106.749 92.4715 106.222 92.925 104.641H91.148ZM88.5255 102.619C88.6236 101.761 89.0647 101.234 89.8858 101.234C90.4373 101.234 91.1235 101.565 91.2216 102.619H88.5255Z" fill="white"/>
<path d="M98.1587 104.175C98.1587 104.482 97.8523 105.327 96.97 105.327C95.6587 105.327 95.6342 103.894 95.6342 103.183C95.6342 102.362 95.9161 101.271 97.0067 101.271C97.8278 101.271 98.0851 101.908 98.1587 102.337H99.9111C99.7518 100.291 98.0484 99.8127 97.0067 99.8127C94.7764 99.8127 93.8573 101.332 93.8573 103.465C93.8573 104.849 94.421 106.749 96.8964 106.749C99.3106 106.749 99.8375 104.849 99.8988 104.175H98.1587Z" fill="white"/>
<path d="M102.809 97.6804H101.081V106.577H102.809V102.803C102.809 101.798 103.397 101.271 104.169 101.271C105.272 101.271 105.296 102.092 105.296 102.57V106.577H107.024V102.019C107.024 100.573 106.032 99.8127 104.745 99.8127C103.801 99.8127 103.054 100.303 102.833 100.842H102.809V97.6804Z" fill="white"/>
</g>
<defs>
<clipPath id="clip0_115_1217">
<rect width="120" height="120" fill="white"/>
</clipPath>
</defs>
</svg>
