<svg width="32" height="32" fill="none" xmlns="http://www.w3.org/2000/svg"><path fill-rule="evenodd" clip-rule="evenodd" d="M5 6h22c.5523 0 1 .4477 1 1v6H4V7c0-.5523.4477-1 1-1Zm-1 9v7h24v-7H4Zm0 9v1c0 .5523.4477 1 1 1h22c.5523 0 1-.4477 1-1v-1H4Zm-2 0V7c0-1.6569 1.3432-3 3-3h22c1.6569 0 3 1.3431 3 3v18c0 1.6569-1.3431 3-3 3H5c-1.6568 0-3-1.3431-3-3v-1ZM14 9.5c0 .5523-.4477 1-1 1h-1c-.5523 0-1-.4477-1-1s.4477-1 1-1h1c.5523 0 1 .4477 1 1Zm6 0c0 .5523-.4477 1-1 1h-2c-.5523 0-1-.4477-1-1s.4477-1 1-1h2c.5523 0 1 .4477 1 1Zm6 0c0 .5523-.4477 1-1 1h-2c-.5523 0-1-.4477-1-1s.4477-1 1-1h2c.5523 0 1 .4477 1 1ZM12 18c.5523 0 1-.4477 1-1s-.4477-1-1-1H7.125c-.5523 0-1 .4477-1 1s.4477 1 1 1H12Zm3.75 2c0 .5523-.4477 1-1 1H7.125c-.5523 0-1-.4477-1-1s.4477-1 1-1h7.625c.5523 0 1 .4477 1 1ZM7.5 11c.8284 0 1.5-.6716 1.5-1.5S8.3284 8 7.5 8 6 8.6716 6 9.5 6.6716 11 7.5 11Z" fill="#CB9CFD"/></svg>