<svg width="32" height="32" fill="none" xmlns="http://www.w3.org/2000/svg"><path fill-rule="evenodd" clip-rule="evenodd" d="M6.3656 8.9807h19.2688c.5643 0 1.0322-.5245 1.0322-1.157 0-.6325-.4679-1.157-1.0322-1.157H6.3656c-.5643 0-1.0323.5245-1.0323 1.157 0 .6325.4542 1.157 1.0323 1.157Zm19.2688 14.0386H6.3656c-.5643 0-1.0323.5245-1.0323 1.157 0 .6325.468 1.157 1.0323 1.157h19.2688c.5643 0 1.0322-.5245 1.0322-1.157 0-.6325-.4679-1.157-1.0322-1.157ZM6.3656 14.843h19.2688c.5643 0 1.0322.5245 1.0322 1.157 0 .6325-.4679 1.157-1.0322 1.157H6.3656c-.5643 0-1.0323-.5245-1.0323-1.157 0-.6325.468-1.157 1.0323-1.157Z" fill="#fff"/></svg>