<svg width="32" height="32" fill="none" xmlns="http://www.w3.org/2000/svg"><path fill-rule="evenodd" clip-rule="evenodd" d="M11.1257 11.604c.5301 0 .9697-.4396.9697-.9697V6.303c0-.53-.4396-.9697-.9697-.9697s-.9697.4396-.9697.9697v4.3313c0 .5301.4396.9697.9697.9697Zm11.9854-2.1592V7.5054c1.9523 0 3.5556 1.5904 3.5556 3.5556v12.0501c0 1.9653-1.5903 3.5556-3.5556 3.5556H8.8889c-1.9653 0-3.5556-1.5903-3.5556-3.5556V11.061c0-1.9652 1.5903-3.5556 3.5556-3.5556v1.9394c-.8921 0-1.6162.7241-1.6162 1.6162v12.0501c0 .8921.724 1.6162 1.6162 1.6162H23.111c.8921 0 1.6162-.7241 1.6162-1.6162V11.061c0-.8921-.7241-1.6162-1.6162-1.6162Zm-9.7614-1.9394h5.3011v1.9394h-5.3011V7.5054Zm-3.5171 9.217h1.28c.2198 0 .3879-.1681.3879-.3879v-1.2799c0-.2198-.1681-.3879-.3879-.3879h-1.28c-.2198 0-.388.1681-.388.3879v1.2799c0 .2198.1811.3879.388.3879Zm4.9655 0h-1.2799c-.2198 0-.388-.1681-.388-.3879v-1.2799c0-.2198.1682-.3879.388-.3879h1.2799c.2198 0 .388.1681.388.3879v1.2799c0 .2198-.1682.3879-.388.3879Zm2.3916-2.0557c-.2198 0-.3876.1681-.3876.3879v1.2799c0 .2198.1678.3879.3876.3879h1.28c.2198 0 .3879-.1681.3879-.3879v-1.2799c0-.2198-.1681-.3879-.3879-.3879h-1.28Zm3.2966 1.6678v-1.2799c0-.2198.1682-.3879.388-.3879h1.28c.2198 0 .3879.1681.3879.3879v1.2799c0 .2198-.1681.3879-.3879.3879h-1.28c-.2198 0-.388-.1681-.388-.3879ZM9.8326 20.5754h1.28c.2198 0 .3879-.1681.3879-.3879v-1.28c0-.2198-.1681-.3879-.3879-.3879h-1.28c-.2198 0-.388.1681-.388.3879v1.28c0 .2069.1811.3879.388.3879Zm4.9655 0h-1.2799c-.2198 0-.388-.181-.388-.3879v-1.28c0-.2198.1682-.3879.388-.3879h1.2799c.2198 0 .388.1681.388.3879v1.28c0 .2198-.1682.3879-.388.3879Zm3.684-2.0687h-1.28c-.2198 0-.3876.1681-.3876.3879v1.28c0 .2198.1678.3878.3876.3878h1.28c.2198 0 .3879-.168.3879-.3878v-1.28c0-.2069-.1811-.3879-.3879-.3879Zm2.3922 0h1.28c.2068 0 .3879.181.3879.3879v1.28c0 .2198-.1681.3878-.3879.3878h-1.28c-.2198 0-.388-.168-.388-.3878v-1.28c0-.2198.1682-.3879.388-.3879Zm.9565-7.8724c0 .5301-.4396.9697-.9697.9697s-.9697-.4396-.9697-.9697V6.303c0-.53.4396-.9697.9697-.9697s.9697.4396.9697.9697v4.3313Z" fill="#FD676A"/></svg>