<svg width="32" height="32" fill="none" xmlns="http://www.w3.org/2000/svg"><path d="m17.4594 15.9983 8.9078-8.9064c.3993-.3992.3993-1.06 0-1.4592s-1.0601-.3992-1.4594 0L16 14.5391 7.0922 5.6327c-.3993-.3992-1.0602-.3992-1.4594 0-.3993.3992-.3993 1.06 0 1.4592l8.9078 8.9064-8.9078 8.9064c-.3993.3992-.3993 1.0599 0 1.4591.2065.2065.468.3029.7297.3029.2616 0 .5231-.0964.7297-.3029L16 17.4574l8.9078 8.9064c.2065.2065.4681.3029.7297.3029s.5232-.0964.7297-.3029c.3993-.3992.3993-1.0599 0-1.4591l-8.9078-8.9064Z" fill="#444444"/></svg>