<svg width="32" height="32" fill="none" xmlns="http://www.w3.org/2000/svg"><path fill-rule="evenodd" clip-rule="evenodd" d="M16 26c5.5228 0 10-4.4772 10-10S21.5228 6 16 6 6 10.4772 6 16s4.4772 10 10 10Zm0 2c6.6274 0 12-5.3726 12-12S22.6274 4 16 4 4 9.3726 4 16s5.3726 12 12 12Zm5.2163-17.8814c.4136-.366 1.0456-.3273 1.4116.0863 1.3802 1.56 2.2191 3.6133 2.2191 5.8602 0 .5522-.4478 1-1 1-.5523 0-1-.4478-1-1 0-1.7402-.6479-3.3265-1.717-4.5349-.366-.4137-.3273-1.0456.0863-1.4116ZM8.1531 15.0651c.5522 0 1 .4477 1 1 0 2.0729.9199 3.9298 2.3772 5.1869.4182.3607.4648.9922.104 1.4104-.3607.4182-.9921.4648-1.4103.104-1.879-1.6208-3.071-4.0224-3.071-6.7013 0-.5523.4478-1 1-1ZM17 11.4648v3.6643c1.6744.4418 2.9089 1.9666 2.9089 3.7798S18.6744 22.2469 17 22.6887v.3947c0 .5523-.4477 1-1 1s-1-.4477-1-1v-.3947c-1.6744-.4418-2.9089-1.9666-2.9089-3.7798 0-.5523.4477-1 1-1s1 .4477 1 1c0 .6876.3635 1.2903.9089 1.6263v-3.6643c-1.6744-.4418-2.9089-1.9666-2.9089-3.7798S13.3256 9.7531 15 9.3113v-.3947c0-.5523.4477-1 1-1s1 .4477 1 1v.3947c1.6744.4418 2.9089 1.9666 2.9089 3.7798 0 .5523-.4477 1-1 1s-1-.4477-1-1c0-.6876-.3636-1.2903-.9089-1.6263Zm-2 0c-.5454.336-.9089.9387-.9089 1.6263 0 .6876.3635 1.2903.9089 1.6263v-3.2526Zm2 5.8178v3.2526c.5453-.3361.9089-.9387.9089-1.6263 0-.6876-.3636-1.2903-.9089-1.6263Z" fill="#CB9CFD"/></svg>