<svg width="32" height="32" fill="none" xmlns="http://www.w3.org/2000/svg"><path fill-rule="evenodd" clip-rule="evenodd" d="M14.2788 4.7966c1.2467-1.203 2.9695-1.7923 4.8946-1.7923 1.1302 0 2.397.1605 3.4559.312a.9283.9283 0 0 1 .7968.9189v3.8586a.9283.9283 0 0 1-.9282.9282h-1.9645c-.766 0-1.0271.1908-1.123.2975-.1129.1257-.2154.3744-.2154.8927v2.0224h3.0762a.9284.9284 0 0 1 .9165 1.0753l-.68 4.2369a.9281.9281 0 0 1-.9165.7811H19.195v9.7396a.9283.9283 0 0 1-.9283.9282H13.28a.9283.9283 0 0 1-.9283-.9282v-9.7396H9.5022a.9283.9283 0 0 1-.9283-.9282v-4.2369a.9283.9283 0 0 1 .9283-.9282h2.8495V9.8339c0-2.0952.6749-3.829 1.9271-5.0373Zm1.2891 1.336c-.8256.7967-1.3597 2.0136-1.3597 3.7013v3.3289a.9283.9283 0 0 1-.9282.9283h-2.8496v2.3803H13.28a.9283.9283 0 0 1 .9282.9283v9.7395h3.1302v-9.7395a.9283.9283 0 0 1 .9283-.9283H20.8l.3821-2.3803h-2.9154a.9283.9283 0 0 1-.9283-.9283v-2.9506c0-.6923.1241-1.5027.6912-2.1337.5842-.6499 1.4565-.913 2.5038-.913h1.0362V5.0457c-.8187-.1043-1.6544-.1849-2.3962-.1849-1.5505 0-2.7744.47-3.6055 1.2718Z" fill="#fff"/></svg>