<svg width="32" height="32" fill="none" xmlns="http://www.w3.org/2000/svg"><path fill-rule="evenodd" clip-rule="evenodd" d="M5.9988 4.9989c0-.5517-.4474-.9989-.9994-.9989C4.4474 4 4 4.4472 4 4.9989v18.0066C4 25.7639 6.2372 28 8.997 28H26.334c.552 0 .9994-.4472.9994-.9989 0-.5517-.4474-.9989-.9994-.9989H8.997c-1.6559 0-2.9982-1.3417-2.9982-2.9967V4.9989Zm21.1155 8.5556c.5484-.0628.942-.5581.8791-1.1062-.0629-.548-.5584-.9414-1.1067-.8786l-2.8698.3289a8.17 8.17 0 0 0-5.6778 3.3114l-.3067.4216a5.148 5.148 0 0 1-4.1635 2.1197 7.1467 7.1467 0 0 0-6.1775 3.552l-.2226.3827c-.2774.4769-.1155 1.0883.3616 1.3656.4772.2773 1.0889.1155 1.3663-.3614l.2226-.3826a5.1478 5.1478 0 0 1 4.4496-2.5585 7.1473 7.1473 0 0 0 5.7804-2.9429l.3066-.4216a6.1713 6.1713 0 0 1 4.2887-2.5012l2.8697-.3289Z" fill="#fff"/></svg>