<svg width="32" height="32" fill="none" xmlns="http://www.w3.org/2000/svg"><path fill-rule="evenodd" clip-rule="evenodd" d="M25 6c.5523 0 1 .4477 1 1v18c0 .5523-.4477 1-1 1s-1-.4477-1-1V7c0-.5523.4477-1 1-1Zm-3 1c0-1.6569 1.3431-3 3-3s3 1.3431 3 3v18c0 1.6569-1.3431 3-3 3s-3-1.3431-3-3V7Zm-5 18v-8c0-.5523-.4477-1-1-1s-1 .4477-1 1v8c0 .5523.4477 1 1 1s1-.4477 1-1Zm-1-11c-1.6569 0-3 1.3431-3 3v8c0 1.6569 1.3431 3 3 3s3-1.3431 3-3v-8c0-1.6569-1.3431-3-3-3ZM8 25v-2c0-.5523-.4477-1-1-1s-1 .4477-1 1v2c0 .5523.4477 1 1 1s1-.4477 1-1Zm-1-5c-1.6569 0-3 1.3431-3 3v2c0 1.6569 1.3431 3 3 3s3-1.3431 3-3v-2c0-1.6569-1.3431-3-3-3Z" fill="#699CFC"/></svg>