<svg width="32" height="32" fill="none" xmlns="http://www.w3.org/2000/svg"><path fill-rule="evenodd" clip-rule="evenodd" d="M4 9.3333C4 6.3878 6.3878 4 9.3333 4h13.3334C25.6122 4 28 6.3878 28 9.3333v13.3334C28 25.6122 25.6122 28 22.6667 28H9.3333C6.3878 28 4 25.6122 4 22.6667V9.3333ZM16 20c2.2091 0 4-1.7909 4-4 0-2.2091-1.7909-4-4-4-2.2091 0-4 1.7909-4 4 0 2.2091 1.7909 4 4 4Zm0 2.6667c3.6819 0 6.6667-2.9848 6.6667-6.6667 0-3.6819-2.9848-6.6667-6.6667-6.6667-3.6819 0-6.6667 2.9848-6.6667 6.6667 0 3.6819 2.9848 6.6667 6.6667 6.6667Zm6.6667-12c.7363 0 1.3333-.597 1.3333-1.3334C24 8.597 23.403 8 22.6667 8c-.7364 0-1.3334.597-1.3334 1.3333 0 .7364.597 1.3334 1.3334 1.3334Z" fill="#fff"/></svg>