<svg width="32" height="32" fill="none" xmlns="http://www.w3.org/2000/svg"><path fill-rule="evenodd" clip-rule="evenodd" d="M22.6667 6H9.3333C7.4923 6 6 7.4924 6 9.3333v13.3334C6 24.5076 7.4924 26 9.3333 26h13.3334C24.5076 26 26 24.5076 26 22.6667V9.3333C26 7.4923 24.5076 6 22.6667 6ZM9.3333 4C6.3878 4 4 6.3878 4 9.3333v13.3334C4 25.6122 6.3878 28 9.3333 28h13.3334C25.6122 28 28 25.6122 28 22.6667V9.3333C28 6.3878 25.6122 4 22.6667 4H9.3333ZM16 20c2.2091 0 4-1.7909 4-4 0-2.2091-1.7909-4-4-4-2.2091 0-4 1.7909-4 4 0 2.2091 1.7909 4 4 4Zm6-4c0 3.3137-2.6863 6-6 6s-6-2.6863-6-6 2.6863-6 6-6 6 2.6863 6 6Zm.6666-5.3333c.7364 0 1.3334-.597 1.3334-1.3334C24 8.597 23.403 8 22.6666 8c-.7363 0-1.3333.597-1.3333 1.3333 0 .7364.597 1.3334 1.3333 1.3334Z" fill="#fff"/></svg>