<svg width="32" height="32" fill="none" xmlns="http://www.w3.org/2000/svg"><path fill-rule="evenodd" clip-rule="evenodd" d="M6.125 3.075a3.88 3.88 0 0 1 3.988 1.653 3.892 3.892 0 0 1-1.742 5.753 3.879 3.879 0 0 1-5.075-2.104 3.893 3.893 0 0 1 .84-4.237 3.882 3.882 0 0 1 1.989-1.065Zm12.106 8.646a6.228 6.228 0 0 1 3.822-1.151c2.755.004 4.61.937 5.7 2.666 1.024 1.628 1.247 3.79 1.247 5.97L28.998 28a1 1 0 0 1-1 1h-4.97a1 1 0 0 1-1-1v-7.796c0-.974-.02-1.835-.265-2.456-.111-.282-.25-.46-.412-.573-.16-.113-.429-.222-.907-.222-.516 0-.851.1-1.073.223-.215.12-.38.292-.513.533-.291.528-.398 1.333-.398 2.36V28a1 1 0 0 1-1 1h-4.969a1 1 0 0 1-1-1V11.97a1 1 0 0 1 1-1h4.77a1 1 0 0 1 .97.752Zm-14.837.248a1 1 0 0 1 1-1H9.37a1 1 0 0 1 1 1V28a1 1 0 0 1-1 1H4.394a1 1 0 0 1-1-1V11.969Z" fill="#fff"/></svg>