<svg width="32" height="32" fill="none" xmlns="http://www.w3.org/2000/svg"><path d="M24.404 8H7.596c-1.2412 0-2.2627 1.0991-2.2627 2.4348v11.1304C5.3333 22.9009 6.3548 24 7.596 24h16.808c1.2413 0 2.2627-1.0991 2.2627-2.4348V10.4348C26.6667 9.0991 25.6453 8 24.404 8Zm-7.3566 8.2226a1.5388 1.5388 0 0 1-2.1074 0L8.346 10.087h15.2954l-6.594 6.1356Zm-4.9906.0835-4.797 4.3965v-8.8487l4.797 4.4522Zm1.4868 1.3913.1164.1113c.6594.6122 1.4996.9322 2.3271.9322.8274 0 1.6679-.3061 2.3273-.9322l.1165-.1113 4.6158 4.2296H8.9277l4.6159-4.2296Zm6.387-1.3913 4.7967-4.4661v8.8487l-4.7967-4.3826Z" fill="#fff"/></svg>