<svg width="32" height="32" fill="none" xmlns="http://www.w3.org/2000/svg"><path fill-rule="evenodd" clip-rule="evenodd" d="M26 16c0 5.5228-4.4772 10-10 10S6 21.5228 6 16 10.4772 6 16 6s10 4.4772 10 10Zm2 0c0 6.6274-5.3726 12-12 12S4 22.6274 4 16 9.3726 4 16 4s12 5.3726 12 12Zm-3.1433-1.646c-.1102-.5412-.6382-.8907-1.1793-.7806-.5412.1102-.8907.6381-.7806 1.1793.3217 1.5811.0896 3.2789-.7805 4.7858-.2761.4783-.1123 1.0899.366 1.3661.4783.2761 1.0899.1122 1.3661-.3661 1.1234-1.9458 1.4236-4.1435 1.0083-6.1845ZM10.257 12.6916c.2762-.4783.1123-1.0899-.366-1.366-.4783-.2762-1.0899-.1123-1.366.366-1.3395 2.32-1.508 4.9958-.6912 7.339.1818.5215.752.7969 1.2734.6151.5215-.1818.797-.7519.6151-1.2735-.6335-1.8173-.5017-3.8854.5347-5.6806Z" fill="#fff"/><path fill-rule="evenodd" clip-rule="evenodd" d="M17.5 10H14c-.5523 0-1 .4477-1 1v7h-1c-.5523 0-1 .4477-1 1s.4477 1 1 1h1v1c0 .5523.4477 1 1 1s1-.4477 1-1v-1h1c.5523 0 1-.4477 1-1s-.4477-1-1-1h-1v-1h2.5c1.933 0 3.5-1.567 3.5-3.5S19.433 10 17.5 10Zm0 5H15v-3h2.5c.8284 0 1.5.6716 1.5 1.5s-.6716 1.5-1.5 1.5Z" fill="#fff"/></svg>