<svg width="32" height="32" fill="none" xmlns="http://www.w3.org/2000/svg"><path d="M21 18.1941C21 20.7947 18.5418 22 16.1838 22c-2.8216 0-5.1817-1.2821-5.1817-2.8565 0-.704.3885-1.344 1.2677-1.344 1.343 0 1.4683 1.9733 3.7887 1.9733 1.1027 0 1.817-.4971 1.817-1.152 0-.8213-.6892-.9472-1.8066-1.2288l-1.8316-.4608C12.4077 16.4832 11 15.7131 11 13.5605 11 10.96 13.5209 10 15.6909 10c2.3705 0 4.7661.96 4.7661 2.4341 0 .7424-.4887 1.3974-1.3033 1.3974-1.2176 0-1.2552-1.472-3.2247-1.472-1.1028 0-1.8066.3072-1.8066.9856 0 .7445.7143.9109 1.6708 1.1413l1.3033.3072C18.8801 15.1989 21 15.9669 21 18.1941Z" fill="#fff"/><path fill-rule="evenodd" clip-rule="evenodd" d="m25.6586 18.6676.1476-.8162c.1155-.6385.1724-1.2621.1724-1.8514 0-6.1127-5.4364-10.9672-11.8314-9.8064l-.8181.1484-.6822-.4752C11.8289 5.297 10.8828 5 9.882 5 7.1927 5 5 7.1927 5 9.882c0 1.0005.2969 1.9474.868 2.7693l.4753.6838-.1505.819c-.1164.6334-.1714 1.2527-.1714 1.8459 0 6.1125 5.4389 10.9671 11.8313 9.8065l.8169-.1484.6818.4738c.8222.5715 1.7692.8681 2.7666.8681C24.8073 27 27 24.8073 27 22.118c0-1.0005-.2969-1.9474-.8681-2.7693l-.4733-.6811ZM27.9786 16c0 .7163-.069 1.4592-.2043 2.2073C28.5782 19.3641 29 20.7092 29 22.118 29 25.9118 25.9118 29 22.118 29c-1.4062 0-2.7513-.4218-3.908-1.2257C10.5533 29.1645 4.0214 23.3224 4.0214 16c0-.7163.0664-1.4565.2043-2.2073C3.4218 12.6359 3 11.2908 3 9.882 3 6.0882 6.0882 3 9.882 3c1.4088 0 2.7539.4218 3.908 1.2257C21.4494 2.8355 27.9786 8.6776 27.9786 16Z" fill="#fff"/></svg>