<svg width="32" height="32" fill="none" xmlns="http://www.w3.org/2000/svg"><path fill-rule="evenodd" clip-rule="evenodd" d="M16.0003 14.4801c-.2506 0-.5012-.0876-.699-.2753l-3.1525-2.9898v11.8342c0 .5129-.4484.9383-.9892.9383-.5407 0-.9892-.4254-.9892-.9383V11.215l-3.152 2.9898c-.3825.3628-1.0157.3628-1.3982 0a.9096.9096 0 0 1 0-1.326l4.6559-4.416c.0189-.027.0448-.041.0726-.056.0108-.006.0219-.012.033-.019.1846-.2377.4482-.3878.7779-.3878.3298 0 .5937.1626.7783.3878.0157.0223.0408.0358.0641.0483.0158.0085.0309.0166.0415.0268l4.6556 4.4159a.9096.9096 0 0 1 0 1.326c-.1979.1877-.4482.2753-.6988.2753Zm8.9816 3.3276c.3825-.3628 1.0157-.3628 1.3982 0 .3825.3628.3825.9507 0 1.3135l-4.6559 4.4159c-.019.0271-.0448.0412-.0725.0563a.506.506 0 0 0-.0328.0188c-.1846.2377-.4617.3878-.7783.3878-.3297 0-.5936-.1501-.7782-.3753-.0157-.0223-.0407-.0358-.0639-.0483-.0158-.0085-.0308-.0166-.0414-.0267l-4.6559-4.416a.9096.9096 0 0 1 0-1.326c.3825-.3628 1.0153-.3628 1.3978 0l3.1524 2.9898V8.9633c0-.513.4485-.9383.9892-.9383.5408 0 .9892.4254.9892.9383v11.8342l3.1521-2.9898Z" fill="#FD676A"/></svg>