<svg width="32" height="32" fill="none" xmlns="http://www.w3.org/2000/svg"><g clip-path="url(#a)"><path d="M26.0035 5.7127c.7748 0 1.4356.7098 1.2305 1.5211l-4.1016 16.3718c-.1482.5747-.6723.9352-1.2419.9352-.1937 0-.3988-.045-.5811-.1352l-3.7827-1.8817a1.7335 1.7335 0 0 0-.7747-.1802c-.5811 0-1.1394.2929-1.4698.8112l-1.6179 2.5578c-.262.4056-.6608.5859-1.0709.5859-.6495 0-1.2875-.462-1.2875-1.2282v-4.3267c0-.3381.1481-.6536.3988-.8902l10.1174-9.3408-11.4961 7.4141c-.2962.2028-.638.2929-.9798.2929-.262 0-.5355-.0563-.7861-.1803l-3.1447-1.5662c-.9456-.4732-.9114-1.8028.0684-2.2197l19.9956-8.4282c.1823-.0788.3532-.1126.5241-.1126Zm0-1.7127c-.4101 0-.8089.0789-1.1849.2479L4.8116 12.676c-1.071.4507-1.766 1.4535-1.8116 2.6028-.0342 1.1493.5925 2.1972 1.6407 2.7267l3.1446 1.5662c.4785.2366 1.0254.3719 1.561.3719.1138 0 .2278 0 .3417-.0113-.0797.2591-.114.5296-.114.8113v4.3267c0 1.6451 1.3217 2.9409 3.0194 2.9409 1.0368 0 1.9938-.5183 2.5407-1.3972l1.6179-2.5578 3.7826 1.8817a3.0158 3.0158 0 0 0 1.3673.3268c1.39 0 2.5863-.924 2.9167-2.2423L28.9203 7.662c.2164-.8789.0228-1.7916-.5355-2.5014C27.8151 4.4282 26.9264 4 26.0035 4Z" fill="#fff"/></g><defs><clipPath id="a"><path fill="#fff" transform="translate(3 4)" d="M0 0h26v24H0z"/></clipPath></defs></svg>