<svg width="32" height="32" fill="none" xmlns="http://www.w3.org/2000/svg"><path fill-rule="evenodd" clip-rule="evenodd" d="M23.5097 9.1458c-1.4891-1.4615-4.018-1.5375-5.6107-.1555-1.0086.8749-1.4104 2.1483-1.1101 3.3431a.9999.9999 0 0 1-1.0159 1.2427c-3.6627-.169-7.123-1.5785-9.731-3.9477-.196 1.2855.3946 2.6262 1.6781 3.4179a1 1 0 0 1-.5525 1.8507 6.281 6.281 0 0 1-.874-.0854c.4912 1.008 1.4945 1.8029 2.7999 2.0463a1 1 0 0 1 .0612 1.9527 6.2489 6.2489 0 0 1-.6548.1284c.7008.6831 1.6952 1.1171 2.8049 1.1365a.9998.9998 0 0 1 .9363.6997.9998.9998 0 0 1-.3669 1.1098c-1.0869.7879-2.3149 1.3699-3.615 1.7264a14.0365 14.0365 0 0 0 3.287.385c.0281 0 .056.0011.0838.0034 8.4088-.0416 13.1909-7.4865 12.9276-11.9311-.1207-2.0361-.847-2.7257-1.0479-2.923Zm4.5806-1.015a1 1 0 0 1 .7201 1.5818c-.6251.8646-1.386 1.6307-2.2528 2.2761v.08c0 6.5137-5.3579 13.9313-15.01 13.9313a.9982.9982 0 0 1-.0869-.0037c-2.8205-.0117-5.5847-.7643-7.9702-2.1769a1 1 0 0 1 .6199-1.8543 9.832 9.832 0 0 0 1.0634.0595c1.1737.0009 2.3251-.211 3.392-.6133-1.3-.6555-2.3342-1.7613-2.823-3.1628a1.0002 1.0002 0 0 1 .0777-.8283c-1.1447-1.0089-1.8601-2.4398-1.8601-4.034v-.0572a1.0005 1.0005 0 0 1 .5805-.9081c-.7743-1.5882-.7412-3.4947.2838-5.1242a1 1 0 0 1 1.597-.1284c2.065 2.3454 5.0223 3.8836 8.2699 4.3067.0212-1.5092.7007-2.9579 1.8967-3.9953 2.2334-1.9379 5.6494-1.9634 7.9107-.1288a9.3617 9.3617 0 0 0 2.358-.8995 1 1 0 0 1 1.424 1.2072 5.357 5.357 0 0 1-.1907.4723Z" fill="#fff"/></svg>