<svg width="32" height="32" fill="none" xmlns="http://www.w3.org/2000/svg"><path d="M26.3382 10.9789c.0159.217.0159.434.0159.653C26.3541 18.3045 20.9882 26 11.1766 26v-.004C8.2782 26 5.44 25.2141 3 23.7321c.4215.048.845.072 1.2696.073 2.402.002 4.7353-.7609 6.6249-2.1658-2.2826-.041-4.2842-1.4499-4.9834-3.5068a5.6074 5.6074 0 0 0 2.4083-.087c-2.4886-.476-4.279-2.5458-4.279-4.9497v-.064c.7415.391 1.5717.608 2.421.632-2.3439-1.4829-3.0664-4.4347-1.651-6.7426 2.7083 3.1548 6.7042 5.0727 10.9937 5.2757-.4299-1.7539.1573-3.5918 1.5432-4.8247 2.1484-1.9119 5.5274-1.814 7.547.219a11.0764 11.0764 0 0 0 3.3874-1.226c-.3982 1.169-1.2316 2.1619-2.3449 2.7929A11.0777 11.0777 0 0 0 29 8.363c-.7162 1.016-1.6182 1.9009-2.6618 2.6158Z" fill="#fff"/></svg>