<svg width="32" height="32" fill="none" xmlns="http://www.w3.org/2000/svg"><path fill-rule="evenodd" clip-rule="evenodd" d="M25.6368 7.5217c-.3103-.1023-.769-.1655-1.2271-.2144-.5321-.0568-1.2055-.1067-1.9729-.1488-1.5368-.0843-3.4866-.1397-5.5103-.1545-4.0043-.0293-8.447.0978-10.5157.5096a1.0066 1.0066 0 0 0-.0546.0124c-1.3584.3505-2.4546 1.3712-2.833 2.7206a.988.988 0 0 0-.0097.0376c-.34 1.4227-.5093 3.5861-.5134 5.6964-.0041 2.1069.156 4.2961.5329 5.761.002.0079.0041.0158.0064.0237.3808 1.3435 1.4704 2.3703 2.8348 2.7184a.9274.9274 0 0 0 .0327.0078c.781.1715 2.1944.292 3.843.3736 1.6767.0831 3.6758.129 5.6762.1344 2.0001.0053 4.0111-.0299 5.711-.1104 1.6704-.079 3.1231-.2046 3.9554-.401l.0202-.005c1.3584-.3505 2.4546-1.3712 2.833-2.7206a1.0072 1.0072 0 0 0 .0108-.0423c.358-1.5308.5393-3.6583.5434-5.7375.0041-2.0746-.1678-4.2055-.5646-5.7323l-.0058-.0212c-.3769-1.3297-1.448-2.3492-2.7927-2.7075ZM6.8305 9.4693c-.69.187-1.1994.6922-1.3766 1.3002C5.17 11.9718 5.004 13.9447 5 15.9845c-.004 2.0477.1558 4.0283.4665 5.2461.1799.6194.695 1.1291 1.3863 1.3111.6006.129 1.8445.2441 3.4959.3259 1.6391.0811 3.6062.1266 5.5826.1319 1.9767.0053 3.9531-.0297 5.6112-.1081 1.6784-.0795 2.9495-.2006 3.5802-.3474.6971-.1833 1.2126-.6907 1.3917-1.3024.3069-1.3263.4815-3.2761.4854-5.2628.004-1.9969-.1649-3.927-.4973-5.2138-.1809-.6245-.7026-1.1378-1.4023-1.3164a1.0075 1.0075 0 0 1-.0984-.0305l-.0014-.0004c-.0103-.0029-.0729-.0204-.2163-.0447-.1484-.0251-.3442-.0511-.5868-.077-.4845-.0518-1.1203-.0993-1.8702-.1405-1.4978-.0822-3.4149-.1369-5.4153-.1516-4.0224-.0294-8.2327.1049-10.0814.4654Zm6.3321 2.2387a1 1 0 0 1 .9899-.0171l6.2676 3.4291a.9999.9999 0 0 1 0 1.7545l-6.2676 3.4291a1 1 0 0 1-1.48-.8773v-6.8581a.9998.9998 0 0 1 .4901-.8602Zm1.5099 2.5472v3.4841l3.1842-1.7421-3.1842-1.742Z" fill="#fff"/></svg>