<svg width="125" height="151" fill="none" xmlns="http://www.w3.org/2000/svg"><path d="m42.5 102.5 71-48m-71 48v40m0-40C40.5 102.5 0 78 0 78M79.5 32.0001 65.6271 65.26 0 49.0467M32 7.5 46.5 100M32 7.5 0 5m32 2.5-32 40" stroke="#FD676A"/><path fill-rule="evenodd" clip-rule="evenodd" d="m45.4741 96.6325 1.5278 2.8168 1.5278 2.8167-1.6404 2.753-1.6436 2.917-3.1682-.064-3.0098-.061-1.5245-2.981-1.5278-2.817 1.6403-2.7525 1.6404-2.7529 3.0098.0608 3.1682.0641ZM45.5747 138.689l1.5278 2.817 1.5278 2.817-1.6404 2.752-1.6437 2.917-3.1681-.064-3.0098-.061-1.5245-2.98-1.5278-2.817 1.6403-2.753 1.6404-2.753 3.0098.061 3.1682.064ZM72.5788 64.0555l-.8941 3.0773-.8941 3.0773-3.1019.8042-3.2195.9185-2.2079-2.2731-2.0975-2.1593 1.0116-3.1915.894-3.0773 3.102-.8042 3.1019-.8043 2.0975 2.1594 2.208 2.273ZM85.5234 33.9754l-2.4635 2.0495-2.4634 2.0495-3.0206-1.0701-3.1819-1.0412-.5572-3.1194-.5292-2.9635 2.6247-2.0783 2.4635-2.0494 3.0206 1.07 3.0206 1.07.5293 2.9635.5571 3.1194ZM122.574 52.3361l-1.471 2.8469-1.471 2.847-3.199.1907-3.336.28-1.728-2.6563-1.642-2.5235 1.609-2.9363 1.471-2.847 3.199-.1906 3.198-.1907 1.642 2.5235 1.728 2.6563ZM38.1227 6.7054l-.8941 3.0773-.894 3.0773-3.102.8042-3.2195.9185-2.2079-2.2731-2.0975-2.1593 1.0116-3.1915.8941-3.0773 3.1019-.8042 3.102-.8043 2.0975 2.1594 2.2079 2.273Z" fill="#fff"/></svg>