<svg width="515" height="114" fill="none" xmlns="http://www.w3.org/2000/svg"><path d="M337.294 87.32c0 .747.013 1.28.04 1.6.027.32.12.653.28 1 .16.347.413.573.76.68.347.107.827.16 1.44.16s1.373-.107 2.28-.32v2.44c-1.28.32-2.44.48-3.48.48-1.547 0-2.627-.44-3.24-1.32-.587-.907-.88-2.36-.88-4.36V74h-3.64v-2.32h3.64v-6.24h2.8v6.24h4.84V74h-4.84v13.32Zm7.991 5.68V63.96h2.68v11.68c2.08-2.933 5.054-4.4 8.92-4.4 2.827 0 4.894.653 6.2 1.96 1.334 1.28 2 3.28 2 6V93h-2.76V81c0-2.587-.426-4.44-1.28-5.56-.853-1.12-2.4-1.68-4.64-1.68-2.4 0-4.4.667-6 2-1.573 1.307-2.36 3-2.36 5.08V93h-2.76Zm46.225-6.8c-.56 2.32-1.786 4.16-3.68 5.52-1.866 1.36-4.146 2.04-6.84 2.04-3.44 0-6.2-1.04-8.28-3.12-2.053-2.107-3.08-4.867-3.08-8.28 0-3.413 1.04-6.16 3.12-8.24 2.107-2.107 4.854-3.16 8.24-3.16 3.414 0 6.147 1.04 8.2 3.12 2.08 2.053 3.12 4.8 3.12 8.24v.64h-19.68c.16 2.587.96 4.587 2.4 6 1.467 1.387 3.454 2.08 5.96 2.08 1.814 0 3.374-.413 4.68-1.24 1.307-.853 2.214-2.053 2.72-3.6h3.12Zm-18.8-5.56h16.44c-.16-2.133-.986-3.84-2.48-5.12-1.493-1.28-3.386-1.92-5.68-1.92-2.346 0-4.266.64-5.76 1.92-1.493 1.28-2.333 2.987-2.52 5.12ZM409.936 93V63.96h2.8v11.32c2.106-2.8 4.92-4.2 8.44-4.2 3.36 0 6.08 1.027 8.16 3.08s3.12 4.747 3.12 8.08-1.04 6.04-3.12 8.12c-2.08 2.053-4.8 3.08-8.16 3.08-3.6 0-6.414-1.413-8.44-4.24V93h-2.8Zm2.8-10.76c0 2.613.746 4.693 2.24 6.24 1.52 1.52 3.573 2.28 6.16 2.28 2.586 0 4.64-.773 6.16-2.32 1.52-1.547 2.28-3.613 2.28-6.2s-.774-4.653-2.32-6.2c-1.52-1.573-3.56-2.36-6.12-2.36s-4.6.787-6.12 2.36c-1.52 1.547-2.28 3.613-2.28 6.2Zm44.907 3.96c-.56 2.32-1.787 4.16-3.68 5.52-1.867 1.36-4.147 2.04-6.84 2.04-3.44 0-6.2-1.04-8.28-3.12-2.053-2.107-3.08-4.867-3.08-8.28 0-3.413 1.04-6.16 3.12-8.24 2.107-2.107 4.853-3.16 8.24-3.16 3.413 0 6.147 1.04 8.2 3.12 2.08 2.053 3.12 4.8 3.12 8.24v.64h-19.68c.16 2.587.96 4.587 2.4 6 1.467 1.387 3.453 2.08 5.96 2.08 1.813 0 3.373-.413 4.68-1.24 1.307-.853 2.213-2.053 2.72-3.6h3.12Zm-18.8-5.56h16.44c-.16-2.133-.987-3.84-2.48-5.12-1.493-1.28-3.387-1.92-5.68-1.92-2.347 0-4.267.64-5.76 1.92-1.493 1.28-2.333 2.987-2.52 5.12Zm22.338 5.64h2.8c.4 3.2 2.866 4.8 7.4 4.8 4.906 0 7.36-1.307 7.36-3.92 0-.933-.32-1.64-.96-2.12-.64-.507-1.654-.867-3.04-1.08l-6.16-.92c-2.374-.347-4.107-.96-5.2-1.84-1.094-.907-1.64-2.24-1.64-4 0-1.893.826-3.4 2.48-4.52 1.68-1.147 4.013-1.72 7-1.72 2.986 0 5.32.613 7 1.84 1.68 1.227 2.546 2.907 2.6 5.04h-2.8c-.4-2.88-2.8-4.32-7.2-4.32-1.974 0-3.507.32-4.6.96-1.067.613-1.6 1.467-1.6 2.56 0 1.013.373 1.747 1.12 2.2.773.453 2.04.813 3.8 1.08l5.44.84c2.32.347 4 .96 5.04 1.84 1.066.88 1.6 2.173 1.6 3.88 0 2.24-.894 3.947-2.68 5.12-1.76 1.173-4.374 1.76-7.84 1.76-3.04 0-5.414-.653-7.12-1.96-1.707-1.307-2.64-3.147-2.8-5.52Zm28.613 1.04c0 .747.013 1.28.04 1.6.027.32.12.653.28 1 .16.347.413.573.76.68.347.107.827.16 1.44.16s1.373-.107 2.28-.32v2.44c-1.28.32-2.44.48-3.48.48-1.547 0-2.627-.44-3.24-1.32-.587-.907-.88-2.36-.88-4.36V74h-3.64v-2.32h3.64v-6.24h2.8v6.24h4.84V74h-4.84v13.32Z" fill="#fff"/><path d="M255.001 27.707a1 1 0 0 0 0-1.414l-6.364-6.364a1 1 0 1 0-1.414 1.414L252.88 27l-5.657 5.657a1 1 0 1 0 1.414 1.414l6.364-6.364ZM192 28h62.294v-2H192v2Z" fill="#F66"/><path d="m328 103 4.853 3.5a8.296 8.296 0 0 0 9.706 0 8.296 8.296 0 0 1 9.706 0 8.296 8.296 0 0 0 9.706 0 8.295 8.295 0 0 1 9.705 0 8.296 8.296 0 0 0 9.706 0 8.296 8.296 0 0 1 9.706 0 8.296 8.296 0 0 0 9.706 0 8.296 8.296 0 0 1 9.706 0 8.296 8.296 0 0 0 9.706 0 8.296 8.296 0 0 1 9.706 0 8.296 8.296 0 0 0 9.706 0 8.296 8.296 0 0 1 9.706 0 8.295 8.295 0 0 0 9.705 0 8.296 8.296 0 0 1 9.706 0 8.296 8.296 0 0 0 9.706 0 8.296 8.296 0 0 1 9.706 0L493 110" stroke="#699CFC" stroke-width="2"/><path d="M277 32.32c0 .747.013 1.28.04 1.6.027.32.12.653.28 1 .16.347.413.573.76.68.347.107.827.16 1.44.16s1.373-.107 2.28-.32v2.44c-1.28.32-2.44.48-3.48.48-1.547 0-2.627-.44-3.24-1.32-.587-.907-.88-2.36-.88-4.36V19h-3.64v-2.32h3.64v-6.24h2.8v6.24h4.84V19H277v13.32Zm7.991 5.68V8.96h2.68v11.68c2.08-2.933 5.054-4.4 8.92-4.4 2.827 0 4.894.653 6.2 1.96 1.334 1.28 2 3.28 2 6V38h-2.76V26c0-2.587-.426-4.44-1.28-5.56-.853-1.12-2.4-1.68-4.64-1.68-2.4 0-4.4.667-6 2-1.573 1.307-2.36 3-2.36 5.08V38h-2.76Zm46.225-6.8c-.56 2.32-1.786 4.16-3.68 5.52-1.866 1.36-4.146 2.04-6.84 2.04-3.44 0-6.2-1.04-8.28-3.12-2.053-2.107-3.08-4.867-3.08-8.28 0-3.413 1.04-6.16 3.12-8.24 2.107-2.107 4.854-3.16 8.24-3.16 3.414 0 6.147 1.04 8.2 3.12 2.08 2.053 3.12 4.8 3.12 8.24v.64h-19.68c.16 2.587.96 4.587 2.4 6 1.467 1.387 3.454 2.08 5.96 2.08 1.814 0 3.374-.413 4.68-1.24 1.307-.853 2.214-2.053 2.72-3.6h3.12Zm-18.8-5.56h16.44c-.16-2.133-.986-3.84-2.48-5.12-1.493-1.28-3.386-1.92-5.68-1.92-2.346 0-4.266.64-5.76 1.92-1.493 1.28-2.333 2.987-2.52 5.12ZM349.642 38V8.96h2.8v11.32c2.106-2.8 4.92-4.2 8.44-4.2 3.36 0 6.08 1.027 8.16 3.08s3.12 4.747 3.12 8.08-1.04 6.04-3.12 8.12c-2.08 2.053-4.8 3.08-8.16 3.08-3.6 0-6.414-1.413-8.44-4.24V38h-2.8Zm2.8-10.76c0 2.613.746 4.693 2.24 6.24 1.52 1.52 3.573 2.28 6.16 2.28 2.586 0 4.64-.773 6.16-2.32 1.52-1.547 2.28-3.613 2.28-6.2s-.774-4.653-2.32-6.2c-1.52-1.573-3.56-2.36-6.12-2.36s-4.6.787-6.12 2.36c-1.52 1.547-2.28 3.613-2.28 6.2Zm44.907 3.96c-.56 2.32-1.787 4.16-3.68 5.52-1.867 1.36-4.147 2.04-6.84 2.04-3.44 0-6.2-1.04-8.28-3.12-2.053-2.107-3.08-4.867-3.08-8.28 0-3.413 1.04-6.16 3.12-8.24 2.107-2.107 4.853-3.16 8.24-3.16 3.413 0 6.147 1.04 8.2 3.12 2.08 2.053 3.12 4.8 3.12 8.24v.64h-19.68c.16 2.587.96 4.587 2.4 6 1.467 1.387 3.453 2.08 5.96 2.08 1.813 0 3.373-.413 4.68-1.24 1.307-.853 2.213-2.053 2.72-3.6h3.12Zm-18.8-5.56h16.44c-.16-2.133-.987-3.84-2.48-5.12-1.493-1.28-3.387-1.92-5.68-1.92-2.347 0-4.267.64-5.76 1.92-1.493 1.28-2.333 2.987-2.52 5.12Zm22.338 5.64h2.8c.4 3.2 2.866 4.8 7.4 4.8 4.906 0 7.36-1.307 7.36-3.92 0-.933-.32-1.64-.96-2.12-.64-.507-1.654-.867-3.04-1.08l-6.16-.92c-2.374-.347-4.107-.96-5.2-1.84-1.094-.907-1.64-2.24-1.64-4 0-1.893.826-3.4 2.48-4.52 1.68-1.147 4.013-1.72 7-1.72 2.986 0 5.32.613 7 1.84 1.68 1.227 2.546 2.907 2.6 5.04h-2.8c-.4-2.88-2.8-4.32-7.2-4.32-1.974 0-3.507.32-4.6.96-1.067.613-1.6 1.467-1.6 2.56 0 1.013.373 1.747 1.12 2.2.773.453 2.04.813 3.8 1.08l5.44.84c2.32.347 4 .96 5.04 1.84 1.066.88 1.6 2.173 1.6 3.88 0 2.24-.894 3.947-2.68 5.12-1.76 1.173-4.374 1.76-7.84 1.76-3.04 0-5.414-.653-7.12-1.96-1.707-1.307-2.64-3.147-2.8-5.52Zm28.613 1.04c0 .747.013 1.28.04 1.6.027.32.12.653.28 1 .16.347.413.573.76.68.347.107.827.16 1.44.16s1.373-.107 2.28-.32v2.44c-1.28.32-2.44.48-3.48.48-1.547 0-2.627-.44-3.24-1.32-.587-.907-.88-2.36-.88-4.36V19h-3.64v-2.32h3.64v-6.24h2.8v6.24h4.84V19h-4.84v13.32ZM8.36 35.08H19.2c2.587 0 4.48-.4 5.68-1.2 1.227-.827 1.84-2.173 1.84-4.04 0-2.053-.56-3.533-1.68-4.44-1.093-.907-2.827-1.36-5.2-1.36H8.36v11.04Zm0-13.64h10.28c2.453 0 4.24-.36 5.36-1.08 1.12-.747 1.68-2.027 1.68-3.84 0-1.76-.547-3.013-1.64-3.76-1.067-.747-2.773-1.12-5.12-1.12H8.36v9.8ZM5.4 38V8.96h14.12c3.013 0 5.28.627 6.8 1.88 1.547 1.227 2.32 3.04 2.32 5.44 0 3.067-1.507 5.2-4.52 6.4 1.813.373 3.2 1.147 4.16 2.32.987 1.173 1.48 2.693 1.48 4.56 0 2.88-.853 5.013-2.56 6.4-1.68 1.36-4.253 2.04-7.72 2.04H5.4Zm49.965-6.8c-.56 2.32-1.787 4.16-3.68 5.52-1.867 1.36-4.147 2.04-6.84 2.04-3.44 0-6.2-1.04-8.28-3.12-2.054-2.107-3.08-4.867-3.08-8.28 0-3.413 1.04-6.16 3.12-8.24 2.106-2.107 4.853-3.16 8.24-3.16 3.413 0 6.146 1.04 8.2 3.12 2.08 2.053 3.12 4.8 3.12 8.24v.64h-19.68c.16 2.587.96 4.587 2.4 6 1.466 1.387 3.453 2.08 5.96 2.08 1.813 0 3.373-.413 4.68-1.24 1.306-.853 2.213-2.053 2.72-3.6h3.12Zm-18.8-5.56h16.44c-.16-2.133-.987-3.84-2.48-5.12-1.494-1.28-3.387-1.92-5.68-1.92-2.347 0-4.267.64-5.76 1.92-1.494 1.28-2.334 2.987-2.52 5.12Zm41.817 4.6h2.84c-.293 2.507-1.413 4.56-3.36 6.16-1.947 1.573-4.306 2.36-7.08 2.36-3.386 0-6.133-1.04-8.24-3.12-2.08-2.107-3.12-4.867-3.12-8.28 0-3.413 1.04-6.16 3.12-8.24 2.107-2.107 4.853-3.16 8.24-3.16 2.694 0 4.974.72 6.84 2.16 1.894 1.44 3.027 3.32 3.4 5.64h-2.88c-1.066-3.44-3.546-5.16-7.44-5.16-2.507 0-4.546.8-6.12 2.4-1.546 1.6-2.32 3.72-2.32 6.36 0 2.667.76 4.787 2.28 6.36 1.547 1.547 3.627 2.32 6.24 2.32 1.947 0 3.6-.52 4.96-1.56 1.387-1.067 2.267-2.48 2.64-4.24Zm8.73 5.4c-2.08-2.107-3.12-4.867-3.12-8.28 0-3.413 1.04-6.16 3.12-8.24 2.107-2.107 4.854-3.16 8.24-3.16 3.414 0 6.161 1.053 8.241 3.16 2.106 2.08 3.16 4.827 3.16 8.24 0 3.413-1.054 6.173-3.16 8.28-2.08 2.08-4.827 3.12-8.24 3.12-3.387 0-6.134-1.04-8.24-3.12Zm2-14.6c-1.52 1.547-2.28 3.653-2.28 6.32 0 2.667.76 4.787 2.28 6.36 1.547 1.547 3.627 2.32 6.24 2.32 2.614 0 4.681-.787 6.201-2.36 1.546-1.573 2.32-3.68 2.32-6.32s-.774-4.747-2.32-6.32c-1.52-1.573-3.587-2.36-6.2-2.36-2.614 0-4.694.787-6.24 2.36ZM111.367 38V16.72h2.68v3.92c2.107-2.907 5.08-4.36 8.92-4.36 4.054 0 6.68 1.453 7.88 4.36 2.107-2.907 5.08-4.36 8.92-4.36 2.827 0 4.894.653 6.2 1.96 1.334 1.28 2 3.28 2 6V38h-2.8V26.04c0-2.613-.426-4.467-1.28-5.56-.826-1.12-2.36-1.68-4.6-1.68-2.426 0-4.426.667-6 2-1.573 1.307-2.36 3-2.36 5.08V38h-2.52V26.04c0-2.613-.426-4.467-1.28-5.56-.826-1.12-2.373-1.68-4.64-1.68-2.426 0-4.426.667-6 2-1.573 1.307-2.36 3-2.36 5.08V38h-2.76Zm62.983-6.8c-.56 2.32-1.787 4.16-3.68 5.52-1.867 1.36-4.147 2.04-6.84 2.04-3.44 0-6.2-1.04-8.28-3.12-2.053-2.107-3.08-4.867-3.08-8.28 0-3.413 1.04-6.16 3.12-8.24 2.107-2.107 4.853-3.16 8.24-3.16 3.413 0 6.147 1.04 8.2 3.12 2.08 2.053 3.12 4.8 3.12 8.24v.64h-19.68c.16 2.587.96 4.587 2.4 6 1.467 1.387 3.453 2.08 5.96 2.08 1.813 0 3.373-.413 4.68-1.24 1.307-.853 2.213-2.053 2.72-3.6h3.12Zm-18.8-5.56h16.44c-.16-2.133-.987-3.84-2.48-5.12-1.493-1.28-3.387-1.92-5.68-1.92-2.347 0-4.267.64-5.76 1.92-1.493 1.28-2.333 2.987-2.52 5.12ZM9 87.326c0 .747.013 1.28.04 1.6.027.32.12.653.28 1a1.2 1.2 0 0 0 .76.68c.347.107.827.16 1.44.16s1.373-.107 2.28-.32v2.44c-1.28.32-2.44.48-3.48.48-1.547 0-2.627-.44-3.24-1.32-.587-.907-.88-2.36-.88-4.36v-13.68H2.56v-2.32H6.2v-6.24H9v6.24h4.84v2.32H9v13.32Zm9.831 3.32c-2.08-2.107-3.12-4.867-3.12-8.28 0-3.413 1.04-6.16 3.12-8.24 2.107-2.107 4.854-3.16 8.24-3.16 3.414 0 6.16 1.053 8.24 3.16 2.107 2.08 3.16 4.826 3.16 8.24 0 3.413-1.053 6.173-3.16 8.28-2.08 2.08-4.826 3.12-8.24 3.12-3.386 0-6.133-1.04-8.24-3.12Zm2-14.6c-1.52 1.546-2.28 3.653-2.28 6.32 0 2.666.76 4.787 2.28 6.36 1.547 1.546 3.627 2.32 6.24 2.32 2.614 0 4.68-.787 6.2-2.36 1.547-1.574 2.32-3.68 2.32-6.32s-.773-4.747-2.32-6.32c-1.52-1.574-3.586-2.36-6.2-2.36-2.613 0-4.693.786-6.24 2.36Zm40.694 6.32c0-2.614-.76-4.694-2.28-6.24-1.52-1.547-3.573-2.32-6.16-2.32-2.56 0-4.613.787-6.16 2.36-1.52 1.547-2.28 3.613-2.28 6.2 0 2.56.76 4.627 2.28 6.2 1.547 1.546 3.6 2.32 6.16 2.32 2.587 0 4.64-.773 6.16-2.32 1.52-1.547 2.28-3.614 2.28-6.2Zm2.76 9.04c0 1.653-.16 2.986-.48 4-.32 1.04-.987 1.973-2 2.8-2.027 1.626-4.907 2.44-8.64 2.44-2.933 0-5.253-.56-6.96-1.68-1.68-1.12-2.613-2.667-2.8-4.64h2.88c.4 2.56 2.667 3.84 6.8 3.84 3.04 0 5.2-.507 6.48-1.52 1.307-1.014 1.96-2.667 1.96-4.96v-2.4c-2.187 2.826-5.013 4.24-8.48 4.24-3.36 0-6.08-1.027-8.16-3.08-2.053-2.053-3.08-4.747-3.08-8.08 0-3.334 1.027-6.027 3.08-8.08 2.08-2.08 4.8-3.12 8.16-3.12 3.493 0 6.32 1.413 8.48 4.24v-3.72h2.76v19.72Zm26.588-5.2c-.56 2.32-1.787 4.16-3.68 5.52-1.867 1.36-4.147 2.04-6.84 2.04-3.44 0-6.2-1.04-8.28-3.12-2.054-2.107-3.08-4.867-3.08-8.28 0-3.413 1.04-6.16 3.12-8.24 2.106-2.107 4.853-3.16 8.24-3.16 3.413 0 6.146 1.04 8.2 3.12 2.08 2.053 3.12 4.8 3.12 8.24v.64h-19.68c.16 2.587.96 4.587 2.4 6 1.466 1.387 3.453 2.08 5.96 2.08 1.813 0 3.373-.414 4.68-1.24 1.306-.853 2.213-2.053 2.72-3.6h3.12Zm-18.8-5.56h16.44c-.16-2.133-.987-3.84-2.48-5.12-1.494-1.28-3.387-1.92-5.68-1.92-2.347 0-4.267.64-5.76 1.92-1.494 1.28-2.334 2.987-2.52 5.12Zm28.177 6.68c0 .747.013 1.28.04 1.6.027.32.12.653.28 1 .16.346.413.573.76.68.347.107.827.16 1.44.16s1.373-.107 2.28-.32v2.44c-1.28.32-2.44.48-3.48.48-1.547 0-2.627-.44-3.24-1.32-.587-.907-.88-2.36-.88-4.36v-13.68h-3.64v-2.32h3.64v-6.24h2.8v6.24h4.84v2.32h-4.84v13.32Zm7.991 5.68v-29.04h2.68v11.68c2.08-2.933 5.054-4.4 8.92-4.4 2.827 0 4.894.653 6.2 1.96 1.334 1.28 2 3.28 2 6v13.8h-2.76v-12c0-2.587-.426-4.44-1.28-5.56-.853-1.12-2.4-1.68-4.64-1.68-2.4 0-4.4.666-6 2-1.573 1.306-2.36 3-2.36 5.08v12.16h-2.76Zm46.225-6.8c-.56 2.32-1.786 4.16-3.68 5.52-1.866 1.36-4.146 2.04-6.84 2.04-3.44 0-6.2-1.04-8.28-3.12-2.053-2.107-3.08-4.867-3.08-8.28 0-3.413 1.04-6.16 3.12-8.24 2.107-2.107 4.854-3.16 8.24-3.16 3.414 0 6.147 1.04 8.2 3.12 2.08 2.053 3.12 4.8 3.12 8.24v.64h-19.68c.16 2.587.96 4.587 2.4 6 1.467 1.387 3.454 2.08 5.96 2.08 1.814 0 3.374-.414 4.68-1.24 1.307-.853 2.214-2.053 2.72-3.6h3.12Zm-18.8-5.56h16.44c-.16-2.133-.986-3.84-2.48-5.12-1.493-1.28-3.386-1.92-5.68-1.92-2.346 0-4.266.64-5.76 1.92-1.493 1.28-2.333 2.987-2.52 5.12Zm27.018 12.36h-2.84v-21.28h2.84v3.52c.613-1.334 1.48-2.373 2.6-3.12a6.585 6.585 0 0 1 3.76-1.16c.933 0 1.88.2 2.84.6v2.68c-.907-.267-1.747-.4-2.52-.4-3.28 0-5.507 1.8-6.68 5.4v13.76Zm30.049 0-7.48-21.28h3.04l6.24 18.68 5.72-18.68h3.56l6.04 18.68 5.96-18.68h2.96l-7.32 21.28h-3.28l-6.12-18.96-5.96 18.96h-3.36Zm29.771 0v-21.32h2.76v21.32h-2.76Zm0-25.72v-3.32h2.76v3.32h-2.76Zm12.902 20.04c0 .747.014 1.28.04 1.6.027.32.12.653.28 1 .16.346.414.573.76.68.347.107.827.16 1.44.16.614 0 1.374-.107 2.28-.32v2.44c-1.28.32-2.44.48-3.48.48-1.546 0-2.626-.44-3.24-1.32-.586-.907-.88-2.36-.88-4.36v-13.68h-3.64v-2.32h3.64v-6.24h2.8v6.24h4.84v2.32h-4.84v13.32Zm7.992 5.68v-29.04h2.68v11.68c2.08-2.933 5.053-4.4 8.92-4.4 2.826 0 4.893.653 6.2 1.96 1.333 1.28 2 3.28 2 6v13.8h-2.76v-12c0-2.587-.427-4.44-1.28-5.56-.854-1.12-2.4-1.68-4.64-1.68-2.4 0-4.4.666-6 2-1.574 1.306-2.36 3-2.36 5.08v12.16h-2.76Z" fill="#fff"/><path d="m298.209 66 2.369 10.489 9.092-5.742-5.741 9.093 10.489 2.369-10.489 2.37 5.741 9.092-9.092-5.742-2.369 10.489-2.369-10.489-9.092 5.742 5.741-9.093L282 82.21l10.489-2.37-5.741-9.091 9.092 5.741L298.209 66Z" fill="#CB9CFD"/></svg>