<svg width="516" height="114" fill="none" xmlns="http://www.w3.org/2000/svg"><path d="M312.83 71.992h14.168v20.68h3.036V69.22h-20.24v9.152c0 8.184-.88 12.848-3.52 12.848-.308 0-1.232-.044-1.848-.176V93.2c.66.22 1.584.308 2.244.308 5.852 0 6.16-9.196 6.16-15.972v-5.544ZM345.093 95.488l12.056-26.268h-3.388l-8.844 20.284-8.756-20.284h-3.52l10.692 23.364c-1.672 3.872-2.816 5.544-5.544 5.544-.748 0-1.716-.132-2.992-.396v2.948c.968.264 1.848.44 2.64.44 4.752 0 5.984-1.936 7.656-5.632ZM359.922 69.22v5.896c0 5.5 4.576 8.712 10.824 8.712.88 0 4.62-.264 7.304-1.1v9.944h3.036V69.22h-3.036v10.736c-2.772.792-5.632 1.1-6.952 1.1-4.576 0-8.14-2.112-8.14-6.336v-5.5h-3.036ZM387.428 69.264v23.408h34.012V69.264h-3.036V89.9h-12.452V69.264h-3.036V89.9h-12.452V69.264h-3.036ZM427.734 92.672h3.74l15.004-19.932v19.932h3.036V69.22h-3.784l-14.96 19.844V69.22h-3.036v23.452ZM469.825 88.8l-9.724-19.58h-4.224v23.452h3.036v-15.4l-.264-4.708 9.548 19.492h3.212l9.548-19.492-.308 4.708v15.4h3.036V69.22h-4.18l-9.68 19.58ZM490.296 92.672h3.74L509.04 72.74v19.932h3.036V69.22h-3.784l-14.96 19.844V69.22h-3.036v23.452Z" fill="#fff"/><path fill-rule="evenodd" clip-rule="evenodd" d="m282.637 73.6008 6.364 6.3639a.9991.9991 0 0 1 0 1.4142l-6.364 6.364c-.39.3905-1.024.3905-1.414 0a.9991.9991 0 0 1 0-1.4142l4.657-4.6569H226v-2h59.88l-4.657-4.6568a.9991.9991 0 0 1 0-1.4142c.39-.3906 1.024-.3906 1.414 0Z" fill="#F66"/><path fill-rule="evenodd" clip-rule="evenodd" d="m7.6343 110.468-7.1468-4.265 1.025-1.717 7.1468 4.265c2.841 1.695 6.3832 1.695 9.2242 0l2.0222-1.207c3.4724-2.072 7.8017-2.072 11.2741 0l2.0222 1.207a9.002 9.002 0 0 0 9.2242 0l2.0223-1.207c3.4723-2.072 7.8017-2.072 11.274 0l2.0222 1.207c2.8411 1.695 6.3833 1.695 9.2243 0l2.0222-1.207c3.4724-2.072 7.8017-2.072 11.2741 0l2.0222 1.207a9.002 9.002 0 0 0 9.2242 0l2.0222-1.207c3.4724-2.072 7.8021-2.072 11.2741 0l2.022 1.207a9.0016 9.0016 0 0 0 9.224 0l2.023-1.207c3.472-2.072 7.801-2.072 11.274 0l2.022 1.207a9.0016 9.0016 0 0 0 9.224 0l2.022-1.207c3.473-2.072 7.802-2.072 11.274 0l2.023 1.207a9.0016 9.0016 0 0 0 9.224 0l2.022-1.207c3.473-2.072 7.802-2.072 11.274 0l2.022 1.207c2.841 1.695 6.384 1.695 9.225 0l2.022-1.207c3.472-2.072 7.802-2.072 11.274 0l7.147 4.265-1.025 1.717-7.147-4.265a9.0016 9.0016 0 0 0-9.224 0l-2.022 1.207c-3.473 2.072-7.802 2.072-11.274 0l-2.023-1.207a9.0016 9.0016 0 0 0-9.224 0l-2.022 1.207c-3.473 2.072-7.802 2.072-11.274 0l-2.022-1.207c-2.841-1.695-6.384-1.695-9.225 0l-2.022 1.207c-3.472 2.072-7.802 2.072-11.274 0l-2.022-1.207a9.0016 9.0016 0 0 0-9.224 0l-2.023 1.207c-3.472 2.072-7.801 2.072-11.274 0l-2.022-1.207c-2.841-1.695-6.3831-1.695-9.2242 0l-2.0222 1.207c-3.4723 2.072-7.8017 2.072-11.274 0l-2.0223-1.207a9.002 9.002 0 0 0-9.2242 0l-2.0222 1.207c-3.4724 2.072-7.8017 2.072-11.2741 0l-2.0222-1.207a9.002 9.002 0 0 0-9.2242 0l-2.0222 1.207c-3.4724 2.072-7.8018 2.072-11.2741 0l-2.0222-1.207a9.0022 9.0022 0 0 0-9.2243 0l-2.0222 1.207c-3.4724 2.072-7.8017 2.072-11.274 0Z" fill="#699CFC"/><path d="M210.54 18.3201h14.168v20.68h3.036v-23.452h-20.24v9.152c0 8.184-.88 12.848-3.52 12.848-.308 0-1.232-.044-1.848-.176v2.156c.66.22 1.584.308 2.244.308 5.852 0 6.16-9.196 6.16-15.972v-5.544ZM242.803 41.8161l12.056-26.268h-3.388l-8.844 20.284-8.756-20.284h-3.52l10.692 23.364c-1.672 3.872-2.816 5.544-5.544 5.544-.748 0-1.716-.132-2.992-.396v2.948c.968.264 1.848.44 2.64.44 4.752 0 5.984-1.936 7.656-5.632ZM257.632 15.5481v5.896c0 5.5 4.576 8.712 10.824 8.712.88 0 4.62-.264 7.304-1.1v9.944h3.036v-23.452h-3.036v10.736c-2.772.792-5.632 1.1-6.952 1.1-4.576 0-8.14-2.112-8.14-6.336v-5.5h-3.036ZM285.138 15.5921v23.408h34.012v-23.408h-3.036v20.636h-12.452v-20.636h-3.036v20.636h-12.452v-20.636h-3.036ZM325.444 39.0001h3.74l15.004-19.932v19.932h3.036v-23.452h-3.784l-14.96 19.844v-19.844h-3.036v23.452ZM367.535 35.1281l-9.724-19.58h-4.224v23.452h3.036v-15.4l-.264-4.708 9.548 19.492h3.212l9.548-19.492-.308 4.708v15.4h3.036v-23.452h-4.18l-9.68 19.58Z" fill="#fff"/><path d="m170.002 10.791 2.369 10.489 9.092-5.7415-5.741 9.0922L186.211 27l-10.489 2.3693 5.741 9.0922-9.092-5.7415-2.369 10.489-2.369-10.489-9.093 5.7415 5.742-9.0922L153.793 27l10.489-2.3693-5.742-9.0922 9.093 5.7415 2.369-10.489Z" fill="#CB9CFD"/><path d="M31.536 17.484h3.256C33.78 10.532 28.28 6.22 19.964 6.22 9.492 6.22 3.2 12.644 3.2 23.028c0 10.252 6.424 16.808 16.192 16.808 8.36 0 14.476-4.972 15.928-12.848h-3.432c-1.276 5.984-6.16 9.724-12.584 9.724-7.744 0-12.848-5.236-12.848-13.684C6.456 14.492 11.56 9.3 19.92 9.3c6.248 0 10.384 2.992 11.616 8.184ZM49.86 39V18.32h9.5039v-2.772H37.32v2.772h9.5039V39H49.86ZM81.3402 26.284v3.168c0 4.356-4.004 7.304-9.768 7.304-3.872 0-6.072-1.716-6.072-4.136 0-3.168 2.596-3.696 7.744-4.488 4.004-.616 6.732-1.1 8.096-1.848Zm5.676 9.724c-.528.176-.968.22-1.32.22-1.232 0-1.276-.792-1.276-2.332V23.512c0-2.376-.088-4.18-1.364-5.764-1.628-2.024-4.4-2.772-8.624-2.772-6.996 0-10.648 2.728-11 8.228h3.036c.22-3.652 2.992-5.456 8.36-5.456 4.268 0 6.512 1.364 6.512 3.916 0 3.124-2.464 2.86-8.14 3.652-3.872.528-6.644.968-8.316 2.2-1.628 1.232-2.464 2.904-2.464 5.016 0 4.4 3.124 6.996 8.888 6.996 4.312 0 7.348-1.144 10.032-4.136.22 2.64 1.012 3.696 3.08 3.696.88 0 1.76-.176 2.596-.44v-2.64ZM101.551 39V18.32h9.504v-2.772H89.0114v2.772h9.504V39h3.0356ZM117.808 25.404v-9.812h-3.036V39h12.188c5.852 0 8.58-2.288 8.58-6.82 0-4.004-2.288-6.776-8.272-6.776h-9.46Zm0 2.772h9.108c4.224 0 5.5 1.364 5.5 4.048 0 2.904-1.232 4.004-5.544 4.004h-9.064v-8.052ZM7.292 80.762v-7.436h8.448c4.048 0 5.412.924 5.412 3.96 0 2.288-2.244 3.476-4.532 3.476H7.292ZM4.256 70.554v23.452h12.188c5.852 0 8.58-2.288 8.58-6.82 0-2.86-1.276-4.884-3.872-5.5 1.98-.88 3.124-2.376 3.124-4.752 0-4.004-2.42-6.38-7.524-6.38H4.256Zm3.036 12.584h9.284c4.18 0 5.324 1.408 5.324 4.092 0 2.904-1.232 4.004-5.544 4.004H7.292v-8.096ZM43.9842 90.134l-9.724-19.58h-4.224v23.452h3.036v-15.4l-.264-4.708 9.548 19.492h3.212l9.548-19.492-.308 4.708v15.4h3.036V70.554h-4.18l-9.68 19.58ZM87.1152 86.526h-3.432c-1.144 3.388-4.136 5.324-8.14 5.324-5.5 0-9.108-3.344-9.108-8.888h21.56v-.704c0-7.612-4.972-12.496-12.452-12.496-7.48 0-12.496 5.06-12.496 12.54 0 7.48 4.928 12.54 12.496 12.54 5.94 0 10.34-3.212 11.572-8.316Zm-20.68-6.116c0-4.62 3.96-7.744 9.108-7.744 5.06 0 8.976 3.08 8.976 7.744h-18.084ZM112.434 85.47c-.792 3.872-4.048 6.38-8.36 6.38-5.7195 0-9.3715-3.696-9.3715-9.548s3.784-9.636 9.2835-9.636c4.136 0 7.04 1.98 8.184 5.676h3.168c-.792-5.06-5.28-8.58-11.264-8.58-7.4795 0-12.4955 5.06-12.4955 12.54 0 7.48 5.016 12.54 12.4955 12.54 6.116 0 10.824-3.828 11.484-9.372h-3.124ZM129.782 94.006v-20.68h9.504v-2.772h-22.044v2.772h9.504v20.68h3.036ZM165.662 86.526h-3.432c-1.144 3.388-4.136 5.324-8.14 5.324-5.5 0-9.108-3.344-9.108-8.888h21.56v-.704c0-7.612-4.972-12.496-12.452-12.496-7.48 0-12.496 5.06-12.496 12.54 0 7.48 4.928 12.54 12.496 12.54 5.94 0 10.34-3.212 11.572-8.316Zm-20.68-6.116c0-4.62 3.96-7.744 9.108-7.744 5.06 0 8.976 3.08 8.976 7.744h-18.084ZM205.29 85.47c-.792 3.872-4.048 6.38-8.36 6.38-5.72 0-9.372-3.696-9.372-9.548s3.784-9.636 9.284-9.636c4.136 0 7.04 1.98 8.184 5.676h3.168c-.792-5.06-5.28-8.58-11.264-8.58-7.48 0-12.496 5.06-12.496 12.54 0 7.48 5.016 12.54 12.496 12.54 6.116 0 10.824-3.828 11.484-9.372h-3.124Z" fill="#fff"/></svg>